<mxfile host="app.diagrams.net" agent="Mozilla/5.0 (Windows NT 10.0; Win64; x64) AppleWebKit/537.36 (KHTML, like Gecko) Chrome/133.0.0.0 Safari/537.36 Edg/133.0.0.0" version="26.0.13">
  <diagram name="Page-1" id="1GAE5tETMzbOopSzP5iR">
    <mxGraphModel dx="2993" dy="3010" grid="1" gridSize="10" guides="1" tooltips="1" connect="1" arrows="1" fold="1" page="1" pageScale="1" pageWidth="850" pageHeight="1100" math="0" shadow="0">
      <root>
        <mxCell id="0" />
        <mxCell id="1" parent="0" />
        <mxCell id="K4n_j_3E0sE-HWsx0Ezl-1" value="" style="rounded=0;whiteSpace=wrap;html=1;" vertex="1" parent="1">
          <mxGeometry x="-810" y="-950" width="718" height="400" as="geometry" />
        </mxCell>
        <mxCell id="K4n_j_3E0sE-HWsx0Ezl-2" value="&lt;h3&gt;&lt;font style=&quot;color: rgb(255, 255, 255);&quot;&gt;&amp;nbsp; &amp;nbsp; &amp;nbsp; &lt;font style=&quot;&quot;&gt;&lt;span style=&quot;font-size: 20px;&quot;&gt;Car Parking System&amp;nbsp; &amp;nbsp; &amp;nbsp; &amp;nbsp; &amp;nbsp; &amp;nbsp; &amp;nbsp; &amp;nbsp; &amp;nbsp; &amp;nbsp; &amp;nbsp; &amp;nbsp; &amp;nbsp; &amp;nbsp; &amp;nbsp; &amp;nbsp; &amp;nbsp;&lt;/span&gt;&lt;span style=&quot;font-weight: normal;&quot;&gt;&lt;font style=&quot;font-size: 18px;&quot;&gt;Home&amp;nbsp; &amp;nbsp;Add Car&lt;/font&gt;&lt;/span&gt;&lt;/font&gt;&lt;/font&gt;&lt;/h3&gt;" style="rounded=0;whiteSpace=wrap;html=1;align=left;fillColor=#3333FF;strokeColor=#3333FF;" vertex="1" parent="1">
          <mxGeometry x="-780" y="-930" width="660" height="50" as="geometry" />
        </mxCell>
        <mxCell id="K4n_j_3E0sE-HWsx0Ezl-3" value="" style="shape=table;startSize=0;container=1;collapsible=0;childLayout=tableLayout;strokeColor=#CCCCCC;" vertex="1" parent="1">
          <mxGeometry x="-761" y="-816" width="621" height="96" as="geometry" />
        </mxCell>
        <mxCell id="K4n_j_3E0sE-HWsx0Ezl-4" value="" style="shape=tableRow;horizontal=0;startSize=0;swimlaneHead=0;swimlaneBody=0;strokeColor=inherit;top=0;left=0;bottom=0;right=0;collapsible=0;dropTarget=0;fillColor=none;points=[[0,0.5],[1,0.5]];portConstraint=eastwest;" vertex="1" parent="K4n_j_3E0sE-HWsx0Ezl-3">
          <mxGeometry width="621" height="40" as="geometry" />
        </mxCell>
        <mxCell id="K4n_j_3E0sE-HWsx0Ezl-5" value="#" style="shape=partialRectangle;html=1;whiteSpace=wrap;connectable=0;strokeColor=inherit;overflow=hidden;fillColor=#000000;top=0;left=0;bottom=0;right=0;pointerEvents=1;fontStyle=1;fontColor=#FFFFFF;fontSize=12;" vertex="1" parent="K4n_j_3E0sE-HWsx0Ezl-4">
          <mxGeometry width="30" height="40" as="geometry">
            <mxRectangle width="30" height="40" as="alternateBounds" />
          </mxGeometry>
        </mxCell>
        <mxCell id="K4n_j_3E0sE-HWsx0Ezl-6" value="Car Brand" style="shape=partialRectangle;html=1;whiteSpace=wrap;connectable=0;strokeColor=inherit;overflow=hidden;fillColor=#000000;top=0;left=0;bottom=0;right=0;pointerEvents=1;fontStyle=1;fontColor=#FFFFFF;fontSize=12;" vertex="1" parent="K4n_j_3E0sE-HWsx0Ezl-4">
          <mxGeometry x="30" width="70" height="40" as="geometry">
            <mxRectangle width="70" height="40" as="alternateBounds" />
          </mxGeometry>
        </mxCell>
        <mxCell id="K4n_j_3E0sE-HWsx0Ezl-7" value="Car Number" style="shape=partialRectangle;html=1;whiteSpace=wrap;connectable=0;strokeColor=inherit;overflow=hidden;fillColor=#000000;top=0;left=0;bottom=0;right=0;pointerEvents=1;fontStyle=1;fontColor=#FFFFFF;fontSize=12;" vertex="1" parent="K4n_j_3E0sE-HWsx0Ezl-4">
          <mxGeometry x="100" width="90" height="40" as="geometry">
            <mxRectangle width="90" height="40" as="alternateBounds" />
          </mxGeometry>
        </mxCell>
        <mxCell id="K4n_j_3E0sE-HWsx0Ezl-8" value="Car Type" style="shape=partialRectangle;html=1;whiteSpace=wrap;connectable=0;strokeColor=inherit;overflow=hidden;fillColor=#000000;top=0;left=0;bottom=0;right=0;pointerEvents=1;fontStyle=1;fontColor=#FFFFFF;fontSize=12;" vertex="1" parent="K4n_j_3E0sE-HWsx0Ezl-4">
          <mxGeometry x="190" width="60" height="40" as="geometry">
            <mxRectangle width="60" height="40" as="alternateBounds" />
          </mxGeometry>
        </mxCell>
        <mxCell id="K4n_j_3E0sE-HWsx0Ezl-9" value="Incoming Time" style="shape=partialRectangle;html=1;whiteSpace=wrap;connectable=0;strokeColor=inherit;overflow=hidden;fillColor=#000000;top=0;left=0;bottom=0;right=0;pointerEvents=1;fontStyle=1;fontColor=#FFFFFF;fontSize=12;" vertex="1" parent="K4n_j_3E0sE-HWsx0Ezl-4">
          <mxGeometry x="250" width="88" height="40" as="geometry">
            <mxRectangle width="88" height="40" as="alternateBounds" />
          </mxGeometry>
        </mxCell>
        <mxCell id="K4n_j_3E0sE-HWsx0Ezl-10" value="Outgoing Time" style="shape=partialRectangle;html=1;whiteSpace=wrap;connectable=0;strokeColor=inherit;overflow=hidden;fillColor=#000000;top=0;left=0;bottom=0;right=0;pointerEvents=1;fontStyle=1;fontColor=#FFFFFF;fontSize=12;" vertex="1" parent="K4n_j_3E0sE-HWsx0Ezl-4">
          <mxGeometry x="338" width="93" height="40" as="geometry">
            <mxRectangle width="93" height="40" as="alternateBounds" />
          </mxGeometry>
        </mxCell>
        <mxCell id="K4n_j_3E0sE-HWsx0Ezl-11" value="Parking Slot" style="shape=partialRectangle;html=1;whiteSpace=wrap;connectable=0;strokeColor=inherit;overflow=hidden;fillColor=#000000;top=0;left=0;bottom=0;right=0;pointerEvents=1;fontStyle=1;fontColor=#FFFFFF;fontSize=12;" vertex="1" parent="K4n_j_3E0sE-HWsx0Ezl-4">
          <mxGeometry x="431" width="80" height="40" as="geometry">
            <mxRectangle width="80" height="40" as="alternateBounds" />
          </mxGeometry>
        </mxCell>
        <mxCell id="K4n_j_3E0sE-HWsx0Ezl-12" value="Action" style="shape=partialRectangle;html=1;whiteSpace=wrap;connectable=0;strokeColor=inherit;overflow=hidden;fillColor=#000000;top=0;left=0;bottom=0;right=0;pointerEvents=1;fontStyle=1;fontColor=#FFFFFF;fontSize=12;" vertex="1" parent="K4n_j_3E0sE-HWsx0Ezl-4">
          <mxGeometry x="511" width="110" height="40" as="geometry">
            <mxRectangle width="110" height="40" as="alternateBounds" />
          </mxGeometry>
        </mxCell>
        <mxCell id="K4n_j_3E0sE-HWsx0Ezl-13" value="" style="shape=tableRow;horizontal=0;startSize=0;swimlaneHead=0;swimlaneBody=0;strokeColor=inherit;top=0;left=0;bottom=0;right=0;collapsible=0;dropTarget=0;fillColor=none;points=[[0,0.5],[1,0.5]];portConstraint=eastwest;" vertex="1" parent="K4n_j_3E0sE-HWsx0Ezl-3">
          <mxGeometry y="40" width="621" height="26" as="geometry" />
        </mxCell>
        <mxCell id="K4n_j_3E0sE-HWsx0Ezl-14" value="1" style="shape=partialRectangle;html=1;whiteSpace=wrap;connectable=0;strokeColor=inherit;overflow=hidden;fillColor=none;top=0;left=0;bottom=0;right=0;pointerEvents=1;" vertex="1" parent="K4n_j_3E0sE-HWsx0Ezl-13">
          <mxGeometry width="30" height="26" as="geometry">
            <mxRectangle width="30" height="26" as="alternateBounds" />
          </mxGeometry>
        </mxCell>
        <mxCell id="K4n_j_3E0sE-HWsx0Ezl-15" value="Benz" style="shape=partialRectangle;html=1;whiteSpace=wrap;connectable=0;strokeColor=inherit;overflow=hidden;fillColor=none;top=0;left=0;bottom=0;right=0;pointerEvents=1;" vertex="1" parent="K4n_j_3E0sE-HWsx0Ezl-13">
          <mxGeometry x="30" width="70" height="26" as="geometry">
            <mxRectangle width="70" height="26" as="alternateBounds" />
          </mxGeometry>
        </mxCell>
        <mxCell id="K4n_j_3E0sE-HWsx0Ezl-16" value="KA-04 AR-1551" style="shape=partialRectangle;html=1;whiteSpace=wrap;connectable=0;strokeColor=inherit;overflow=hidden;fillColor=none;top=0;left=0;bottom=0;right=0;pointerEvents=1;" vertex="1" parent="K4n_j_3E0sE-HWsx0Ezl-13">
          <mxGeometry x="100" width="90" height="26" as="geometry">
            <mxRectangle width="90" height="26" as="alternateBounds" />
          </mxGeometry>
        </mxCell>
        <mxCell id="K4n_j_3E0sE-HWsx0Ezl-17" value="SUV" style="shape=partialRectangle;html=1;whiteSpace=wrap;connectable=0;strokeColor=inherit;overflow=hidden;fillColor=none;top=0;left=0;bottom=0;right=0;pointerEvents=1;" vertex="1" parent="K4n_j_3E0sE-HWsx0Ezl-13">
          <mxGeometry x="190" width="60" height="26" as="geometry">
            <mxRectangle width="60" height="26" as="alternateBounds" />
          </mxGeometry>
        </mxCell>
        <mxCell id="K4n_j_3E0sE-HWsx0Ezl-18" value="10:20" style="shape=partialRectangle;html=1;whiteSpace=wrap;connectable=0;strokeColor=inherit;overflow=hidden;fillColor=none;top=0;left=0;bottom=0;right=0;pointerEvents=1;" vertex="1" parent="K4n_j_3E0sE-HWsx0Ezl-13">
          <mxGeometry x="250" width="88" height="26" as="geometry">
            <mxRectangle width="88" height="26" as="alternateBounds" />
          </mxGeometry>
        </mxCell>
        <mxCell id="K4n_j_3E0sE-HWsx0Ezl-19" value="12:24" style="shape=partialRectangle;html=1;whiteSpace=wrap;connectable=0;strokeColor=inherit;overflow=hidden;fillColor=none;top=0;left=0;bottom=0;right=0;pointerEvents=1;" vertex="1" parent="K4n_j_3E0sE-HWsx0Ezl-13">
          <mxGeometry x="338" width="93" height="26" as="geometry">
            <mxRectangle width="93" height="26" as="alternateBounds" />
          </mxGeometry>
        </mxCell>
        <mxCell id="K4n_j_3E0sE-HWsx0Ezl-20" value="A-1" style="shape=partialRectangle;html=1;whiteSpace=wrap;connectable=0;strokeColor=inherit;overflow=hidden;fillColor=none;top=0;left=0;bottom=0;right=0;pointerEvents=1;" vertex="1" parent="K4n_j_3E0sE-HWsx0Ezl-13">
          <mxGeometry x="431" width="80" height="26" as="geometry">
            <mxRectangle width="80" height="26" as="alternateBounds" />
          </mxGeometry>
        </mxCell>
        <mxCell id="K4n_j_3E0sE-HWsx0Ezl-21" value="" style="shape=partialRectangle;html=1;whiteSpace=wrap;connectable=0;strokeColor=inherit;overflow=hidden;fillColor=none;top=0;left=0;bottom=0;right=0;pointerEvents=1;" vertex="1" parent="K4n_j_3E0sE-HWsx0Ezl-13">
          <mxGeometry x="511" width="110" height="26" as="geometry">
            <mxRectangle width="110" height="26" as="alternateBounds" />
          </mxGeometry>
        </mxCell>
        <mxCell id="K4n_j_3E0sE-HWsx0Ezl-22" value="" style="shape=tableRow;horizontal=0;startSize=0;swimlaneHead=0;swimlaneBody=0;strokeColor=inherit;top=0;left=0;bottom=0;right=0;collapsible=0;dropTarget=0;fillColor=none;points=[[0,0.5],[1,0.5]];portConstraint=eastwest;" vertex="1" parent="K4n_j_3E0sE-HWsx0Ezl-3">
          <mxGeometry y="66" width="621" height="30" as="geometry" />
        </mxCell>
        <mxCell id="K4n_j_3E0sE-HWsx0Ezl-23" value="2" style="shape=partialRectangle;html=1;whiteSpace=wrap;connectable=0;strokeColor=inherit;overflow=hidden;fillColor=none;top=0;left=0;bottom=0;right=0;pointerEvents=1;" vertex="1" parent="K4n_j_3E0sE-HWsx0Ezl-22">
          <mxGeometry width="30" height="30" as="geometry">
            <mxRectangle width="30" height="30" as="alternateBounds" />
          </mxGeometry>
        </mxCell>
        <mxCell id="K4n_j_3E0sE-HWsx0Ezl-24" value="Audi" style="shape=partialRectangle;html=1;whiteSpace=wrap;connectable=0;strokeColor=inherit;overflow=hidden;fillColor=none;top=0;left=0;bottom=0;right=0;pointerEvents=1;" vertex="1" parent="K4n_j_3E0sE-HWsx0Ezl-22">
          <mxGeometry x="30" width="70" height="30" as="geometry">
            <mxRectangle width="70" height="30" as="alternateBounds" />
          </mxGeometry>
        </mxCell>
        <mxCell id="K4n_j_3E0sE-HWsx0Ezl-25" value="KA-01 AJ-2001" style="shape=partialRectangle;html=1;whiteSpace=wrap;connectable=0;strokeColor=inherit;overflow=hidden;fillColor=none;top=0;left=0;bottom=0;right=0;pointerEvents=1;" vertex="1" parent="K4n_j_3E0sE-HWsx0Ezl-22">
          <mxGeometry x="100" width="90" height="30" as="geometry">
            <mxRectangle width="90" height="30" as="alternateBounds" />
          </mxGeometry>
        </mxCell>
        <mxCell id="K4n_j_3E0sE-HWsx0Ezl-26" value="XUV" style="shape=partialRectangle;html=1;whiteSpace=wrap;connectable=0;strokeColor=inherit;overflow=hidden;fillColor=none;top=0;left=0;bottom=0;right=0;pointerEvents=1;" vertex="1" parent="K4n_j_3E0sE-HWsx0Ezl-22">
          <mxGeometry x="190" width="60" height="30" as="geometry">
            <mxRectangle width="60" height="30" as="alternateBounds" />
          </mxGeometry>
        </mxCell>
        <mxCell id="K4n_j_3E0sE-HWsx0Ezl-27" value="07:30" style="shape=partialRectangle;html=1;whiteSpace=wrap;connectable=0;strokeColor=inherit;overflow=hidden;fillColor=none;top=0;left=0;bottom=0;right=0;pointerEvents=1;" vertex="1" parent="K4n_j_3E0sE-HWsx0Ezl-22">
          <mxGeometry x="250" width="88" height="30" as="geometry">
            <mxRectangle width="88" height="30" as="alternateBounds" />
          </mxGeometry>
        </mxCell>
        <mxCell id="K4n_j_3E0sE-HWsx0Ezl-28" value="14:30" style="shape=partialRectangle;html=1;whiteSpace=wrap;connectable=0;strokeColor=inherit;overflow=hidden;fillColor=none;top=0;left=0;bottom=0;right=0;pointerEvents=1;" vertex="1" parent="K4n_j_3E0sE-HWsx0Ezl-22">
          <mxGeometry x="338" width="93" height="30" as="geometry">
            <mxRectangle width="93" height="30" as="alternateBounds" />
          </mxGeometry>
        </mxCell>
        <mxCell id="K4n_j_3E0sE-HWsx0Ezl-29" value="B-1" style="shape=partialRectangle;html=1;whiteSpace=wrap;connectable=0;strokeColor=inherit;overflow=hidden;fillColor=none;top=0;left=0;bottom=0;right=0;pointerEvents=1;" vertex="1" parent="K4n_j_3E0sE-HWsx0Ezl-22">
          <mxGeometry x="431" width="80" height="30" as="geometry">
            <mxRectangle width="80" height="30" as="alternateBounds" />
          </mxGeometry>
        </mxCell>
        <mxCell id="K4n_j_3E0sE-HWsx0Ezl-30" value="" style="shape=partialRectangle;html=1;whiteSpace=wrap;connectable=0;strokeColor=inherit;overflow=hidden;fillColor=none;top=0;left=0;bottom=0;right=0;pointerEvents=1;" vertex="1" parent="K4n_j_3E0sE-HWsx0Ezl-22">
          <mxGeometry x="511" width="110" height="30" as="geometry">
            <mxRectangle width="110" height="30" as="alternateBounds" />
          </mxGeometry>
        </mxCell>
        <mxCell id="K4n_j_3E0sE-HWsx0Ezl-32" value="Car Parking List" style="text;html=1;align=center;verticalAlign=middle;whiteSpace=wrap;rounded=0;fontStyle=1;fontSize=16;" vertex="1" parent="1">
          <mxGeometry x="-774" y="-850" width="170" height="30" as="geometry" />
        </mxCell>
        <mxCell id="K4n_j_3E0sE-HWsx0Ezl-36" value="Add New Car" style="rounded=1;whiteSpace=wrap;html=1;fillColor=#55AB51;fontColor=#FFFFFF;" vertex="1" parent="1">
          <mxGeometry x="-240" y="-860" width="80" height="30" as="geometry" />
        </mxCell>
        <mxCell id="K4n_j_3E0sE-HWsx0Ezl-37" value="&lt;font style=&quot;font-size: 8px;&quot;&gt;View&lt;/font&gt;" style="rounded=1;whiteSpace=wrap;html=1;fillColor=#28FFF7;fontColor=#4D4D4D;" vertex="1" parent="1">
          <mxGeometry x="-245" y="-773" width="30" height="20" as="geometry" />
        </mxCell>
        <mxCell id="K4n_j_3E0sE-HWsx0Ezl-38" value="&lt;font style=&quot;font-size: 8px;&quot;&gt;Edit&lt;/font&gt;" style="rounded=1;whiteSpace=wrap;html=1;fillColor=#FFFF66;fontColor=#000000;" vertex="1" parent="1">
          <mxGeometry x="-211" y="-773" width="30" height="20" as="geometry" />
        </mxCell>
        <mxCell id="K4n_j_3E0sE-HWsx0Ezl-39" value="&lt;font style=&quot;font-size: 8px;&quot;&gt;Delete&lt;/font&gt;" style="rounded=1;whiteSpace=wrap;html=1;fillColor=#CC0000;fontColor=#FFFFFF;" vertex="1" parent="1">
          <mxGeometry x="-177" y="-773" width="30" height="20" as="geometry" />
        </mxCell>
        <mxCell id="K4n_j_3E0sE-HWsx0Ezl-40" value="&lt;font style=&quot;font-size: 8px;&quot;&gt;View&lt;/font&gt;" style="rounded=1;whiteSpace=wrap;html=1;fillColor=#28FFF7;fontColor=#4D4D4D;" vertex="1" parent="1">
          <mxGeometry x="-245" y="-745" width="30" height="20" as="geometry" />
        </mxCell>
        <mxCell id="K4n_j_3E0sE-HWsx0Ezl-41" value="&lt;font style=&quot;font-size: 8px;&quot;&gt;Edit&lt;/font&gt;" style="rounded=1;whiteSpace=wrap;html=1;fillColor=#FFFF66;fontColor=#000000;" vertex="1" parent="1">
          <mxGeometry x="-211" y="-745" width="30" height="20" as="geometry" />
        </mxCell>
        <mxCell id="K4n_j_3E0sE-HWsx0Ezl-42" value="&lt;font style=&quot;font-size: 8px;&quot;&gt;Delete&lt;/font&gt;" style="rounded=1;whiteSpace=wrap;html=1;fillColor=#CC0000;fontColor=#FFFFFF;" vertex="1" parent="1">
          <mxGeometry x="-177" y="-745" width="30" height="20" as="geometry" />
        </mxCell>
        <mxCell id="K4n_j_3E0sE-HWsx0Ezl-43" value="" style="rounded=0;whiteSpace=wrap;html=1;" vertex="1" parent="1">
          <mxGeometry x="83" y="-951" width="718" height="400" as="geometry" />
        </mxCell>
        <mxCell id="K4n_j_3E0sE-HWsx0Ezl-44" value="&lt;h3&gt;&lt;font style=&quot;color: rgb(255, 255, 255);&quot;&gt;&amp;nbsp; &amp;nbsp; &amp;nbsp; &lt;font style=&quot;&quot;&gt;&lt;span style=&quot;font-size: 20px;&quot;&gt;Car Parking System&amp;nbsp; &amp;nbsp; &amp;nbsp; &amp;nbsp; &amp;nbsp; &amp;nbsp; &amp;nbsp; &amp;nbsp; &amp;nbsp; &amp;nbsp; &amp;nbsp; &amp;nbsp; &amp;nbsp; &amp;nbsp; &amp;nbsp; &amp;nbsp; &amp;nbsp;&lt;/span&gt;&lt;span style=&quot;font-weight: normal;&quot;&gt;&lt;font style=&quot;font-size: 18px;&quot;&gt;Home&amp;nbsp; &amp;nbsp;Add Car&lt;/font&gt;&lt;/span&gt;&lt;/font&gt;&lt;/font&gt;&lt;/h3&gt;" style="rounded=0;whiteSpace=wrap;html=1;align=left;fillColor=#3333FF;strokeColor=#3333FF;" vertex="1" parent="1">
          <mxGeometry x="110" y="-930" width="660" height="50" as="geometry" />
        </mxCell>
        <mxCell id="K4n_j_3E0sE-HWsx0Ezl-73" value="Add New Car" style="text;html=1;align=center;verticalAlign=middle;whiteSpace=wrap;rounded=0;fontStyle=1;fontSize=16;" vertex="1" parent="1">
          <mxGeometry x="102" y="-869" width="170" height="30" as="geometry" />
        </mxCell>
        <mxCell id="K4n_j_3E0sE-HWsx0Ezl-81" value="Car Brand" style="text;html=1;align=center;verticalAlign=middle;whiteSpace=wrap;rounded=0;fontStyle=0;fontSize=12;" vertex="1" parent="1">
          <mxGeometry x="80" y="-844" width="170" height="30" as="geometry" />
        </mxCell>
        <mxCell id="K4n_j_3E0sE-HWsx0Ezl-82" value="" style="rounded=1;whiteSpace=wrap;html=1;" vertex="1" parent="1">
          <mxGeometry x="130" y="-821" width="620" height="19" as="geometry" />
        </mxCell>
        <mxCell id="K4n_j_3E0sE-HWsx0Ezl-83" value="Car Number" style="text;html=1;align=center;verticalAlign=middle;whiteSpace=wrap;rounded=0;fontStyle=0;fontSize=12;" vertex="1" parent="1">
          <mxGeometry x="82" y="-802" width="170" height="30" as="geometry" />
        </mxCell>
        <mxCell id="K4n_j_3E0sE-HWsx0Ezl-85" value="Car Type" style="text;html=1;align=center;verticalAlign=middle;whiteSpace=wrap;rounded=0;fontStyle=0;fontSize=12;" vertex="1" parent="1">
          <mxGeometry x="75" y="-758" width="170" height="30" as="geometry" />
        </mxCell>
        <mxCell id="K4n_j_3E0sE-HWsx0Ezl-88" value="" style="rounded=1;whiteSpace=wrap;html=1;" vertex="1" parent="1">
          <mxGeometry x="129" y="-778" width="620" height="21" as="geometry" />
        </mxCell>
        <mxCell id="K4n_j_3E0sE-HWsx0Ezl-89" value="" style="rounded=1;whiteSpace=wrap;html=1;" vertex="1" parent="1">
          <mxGeometry x="127" y="-734" width="620" height="21" as="geometry" />
        </mxCell>
        <mxCell id="K4n_j_3E0sE-HWsx0Ezl-90" value="Incoming Time" style="text;html=1;align=center;verticalAlign=middle;whiteSpace=wrap;rounded=0;fontStyle=0;fontSize=12;" vertex="1" parent="1">
          <mxGeometry x="89" y="-713" width="170" height="30" as="geometry" />
        </mxCell>
        <mxCell id="K4n_j_3E0sE-HWsx0Ezl-91" value="" style="rounded=1;whiteSpace=wrap;html=1;" vertex="1" parent="1">
          <mxGeometry x="125" y="-690" width="620" height="21" as="geometry" />
        </mxCell>
        <mxCell id="K4n_j_3E0sE-HWsx0Ezl-92" value="Outgoing Time" style="text;html=1;align=center;verticalAlign=middle;whiteSpace=wrap;rounded=0;fontStyle=0;fontSize=12;" vertex="1" parent="1">
          <mxGeometry x="87" y="-670" width="170" height="30" as="geometry" />
        </mxCell>
        <mxCell id="K4n_j_3E0sE-HWsx0Ezl-93" value="" style="rounded=1;whiteSpace=wrap;html=1;" vertex="1" parent="1">
          <mxGeometry x="124" y="-646" width="620" height="21" as="geometry" />
        </mxCell>
        <mxCell id="K4n_j_3E0sE-HWsx0Ezl-94" value="" style="rounded=1;whiteSpace=wrap;html=1;" vertex="1" parent="1">
          <mxGeometry x="124" y="-603" width="620" height="21" as="geometry" />
        </mxCell>
        <mxCell id="K4n_j_3E0sE-HWsx0Ezl-95" value="Parking Slot" style="text;html=1;align=center;verticalAlign=middle;whiteSpace=wrap;rounded=0;fontStyle=0;fontSize=12;" vertex="1" parent="1">
          <mxGeometry x="79" y="-628" width="170" height="30" as="geometry" />
        </mxCell>
        <mxCell id="K4n_j_3E0sE-HWsx0Ezl-96" value="Save" style="rounded=1;whiteSpace=wrap;html=1;fillColor=#3333FF;fontColor=#FFFFFF;" vertex="1" parent="1">
          <mxGeometry x="131" y="-571" width="40" height="13" as="geometry" />
        </mxCell>
        <mxCell id="K4n_j_3E0sE-HWsx0Ezl-97" value="" style="rounded=0;whiteSpace=wrap;html=1;" vertex="1" parent="1">
          <mxGeometry x="-819.5" y="20" width="718" height="400" as="geometry" />
        </mxCell>
        <mxCell id="K4n_j_3E0sE-HWsx0Ezl-98" value="&lt;h3&gt;&lt;font style=&quot;color: rgb(255, 255, 255);&quot;&gt;&amp;nbsp; &amp;nbsp; &amp;nbsp; &lt;font style=&quot;&quot;&gt;&lt;span style=&quot;font-size: 20px;&quot;&gt;Car Parking System&amp;nbsp; &amp;nbsp; &amp;nbsp; &amp;nbsp; &amp;nbsp; &amp;nbsp; &amp;nbsp; &amp;nbsp; &amp;nbsp; &amp;nbsp; &amp;nbsp; &amp;nbsp; &amp;nbsp; &amp;nbsp; &amp;nbsp; &amp;nbsp; &amp;nbsp;&lt;/span&gt;&lt;span style=&quot;font-weight: normal;&quot;&gt;&lt;font style=&quot;font-size: 18px;&quot;&gt;Home&amp;nbsp; &amp;nbsp;Add Car&lt;/font&gt;&lt;/span&gt;&lt;/font&gt;&lt;/font&gt;&lt;/h3&gt;" style="rounded=0;whiteSpace=wrap;html=1;align=left;fillColor=#3333FF;strokeColor=#3333FF;" vertex="1" parent="1">
          <mxGeometry x="-792.5" y="41" width="660" height="50" as="geometry" />
        </mxCell>
        <mxCell id="K4n_j_3E0sE-HWsx0Ezl-99" value="Edit Car Details" style="text;html=1;align=center;verticalAlign=middle;whiteSpace=wrap;rounded=0;fontStyle=1;fontSize=16;" vertex="1" parent="1">
          <mxGeometry x="-790.5" y="99" width="170" height="30" as="geometry" />
        </mxCell>
        <mxCell id="K4n_j_3E0sE-HWsx0Ezl-100" value="Car Brand" style="text;html=1;align=center;verticalAlign=middle;whiteSpace=wrap;rounded=0;fontStyle=0;fontSize=12;" vertex="1" parent="1">
          <mxGeometry x="-822.5" y="121" width="170" height="30" as="geometry" />
        </mxCell>
        <mxCell id="K4n_j_3E0sE-HWsx0Ezl-101" value="&lt;font style=&quot;font-size: 10px;&quot;&gt;&amp;nbsp; &amp;nbsp;Audi&lt;/font&gt;" style="rounded=1;whiteSpace=wrap;html=1;align=left;" vertex="1" parent="1">
          <mxGeometry x="-774.5" y="144" width="620" height="19" as="geometry" />
        </mxCell>
        <mxCell id="K4n_j_3E0sE-HWsx0Ezl-102" value="Car Number" style="text;html=1;align=center;verticalAlign=middle;whiteSpace=wrap;rounded=0;fontStyle=0;fontSize=12;" vertex="1" parent="1">
          <mxGeometry x="-820.5" y="163" width="170" height="30" as="geometry" />
        </mxCell>
        <mxCell id="K4n_j_3E0sE-HWsx0Ezl-103" value="Car Type" style="text;html=1;align=center;verticalAlign=middle;whiteSpace=wrap;rounded=0;fontStyle=0;fontSize=12;" vertex="1" parent="1">
          <mxGeometry x="-827.5" y="207" width="170" height="30" as="geometry" />
        </mxCell>
        <mxCell id="K4n_j_3E0sE-HWsx0Ezl-104" value="&lt;span style=&quot;font-size: 10px;&quot;&gt;&amp;nbsp; &amp;nbsp;KA-04 AR-1551&lt;/span&gt;" style="rounded=1;whiteSpace=wrap;html=1;align=left;" vertex="1" parent="1">
          <mxGeometry x="-773.5" y="187" width="620" height="21" as="geometry" />
        </mxCell>
        <mxCell id="K4n_j_3E0sE-HWsx0Ezl-105" value="&lt;span style=&quot;font-size: 10px;&quot;&gt;&amp;nbsp; &amp;nbsp;SUV&lt;/span&gt;" style="rounded=1;whiteSpace=wrap;html=1;align=left;" vertex="1" parent="1">
          <mxGeometry x="-775.5" y="231" width="620" height="21" as="geometry" />
        </mxCell>
        <mxCell id="K4n_j_3E0sE-HWsx0Ezl-106" value="Incoming Time" style="text;html=1;align=center;verticalAlign=middle;whiteSpace=wrap;rounded=0;fontStyle=0;fontSize=12;" vertex="1" parent="1">
          <mxGeometry x="-813.5" y="252" width="170" height="30" as="geometry" />
        </mxCell>
        <mxCell id="K4n_j_3E0sE-HWsx0Ezl-107" value="&lt;span style=&quot;font-size: 10px;&quot;&gt;&amp;nbsp; &amp;nbsp;10:30&lt;/span&gt;" style="rounded=1;whiteSpace=wrap;html=1;align=left;" vertex="1" parent="1">
          <mxGeometry x="-777.5" y="275" width="620" height="21" as="geometry" />
        </mxCell>
        <mxCell id="K4n_j_3E0sE-HWsx0Ezl-108" value="Outgoing Time" style="text;html=1;align=center;verticalAlign=middle;whiteSpace=wrap;rounded=0;fontStyle=0;fontSize=12;" vertex="1" parent="1">
          <mxGeometry x="-815.5" y="295" width="170" height="30" as="geometry" />
        </mxCell>
        <mxCell id="K4n_j_3E0sE-HWsx0Ezl-109" value="&lt;span style=&quot;font-size: 10px;&quot;&gt;&amp;nbsp; &amp;nbsp;15:30&lt;/span&gt;" style="rounded=1;whiteSpace=wrap;html=1;align=left;" vertex="1" parent="1">
          <mxGeometry x="-778.5" y="319" width="620" height="21" as="geometry" />
        </mxCell>
        <mxCell id="K4n_j_3E0sE-HWsx0Ezl-110" value="&lt;span style=&quot;font-size: 10px;&quot;&gt;&amp;nbsp; &amp;nbsp;A-1&lt;/span&gt;" style="rounded=1;whiteSpace=wrap;html=1;align=left;" vertex="1" parent="1">
          <mxGeometry x="-778.5" y="362" width="620" height="21" as="geometry" />
        </mxCell>
        <mxCell id="K4n_j_3E0sE-HWsx0Ezl-111" value="Parking Slot" style="text;html=1;align=center;verticalAlign=middle;whiteSpace=wrap;rounded=0;fontStyle=0;fontSize=12;" vertex="1" parent="1">
          <mxGeometry x="-823.5" y="337" width="170" height="30" as="geometry" />
        </mxCell>
        <mxCell id="K4n_j_3E0sE-HWsx0Ezl-112" value="Update" style="rounded=1;whiteSpace=wrap;html=1;fillColor=#3333FF;fontColor=#FFFFFF;" vertex="1" parent="1">
          <mxGeometry x="-771.5" y="390" width="52" height="23" as="geometry" />
        </mxCell>
        <mxCell id="K4n_j_3E0sE-HWsx0Ezl-113" value="" style="rounded=0;whiteSpace=wrap;html=1;" vertex="1" parent="1">
          <mxGeometry x="69.5" y="20" width="718" height="400" as="geometry" />
        </mxCell>
        <mxCell id="K4n_j_3E0sE-HWsx0Ezl-114" value="&lt;h3&gt;&lt;font style=&quot;color: rgb(255, 255, 255);&quot;&gt;&amp;nbsp; &amp;nbsp; &amp;nbsp; &lt;font style=&quot;&quot;&gt;&lt;span style=&quot;font-size: 20px;&quot;&gt;Car Parking System&amp;nbsp; &amp;nbsp; &amp;nbsp; &amp;nbsp; &amp;nbsp; &amp;nbsp; &amp;nbsp; &amp;nbsp; &amp;nbsp; &amp;nbsp; &amp;nbsp; &amp;nbsp; &amp;nbsp; &amp;nbsp; &amp;nbsp; &amp;nbsp; &amp;nbsp;&lt;/span&gt;&lt;span style=&quot;font-weight: normal;&quot;&gt;&lt;font style=&quot;font-size: 18px;&quot;&gt;Home&amp;nbsp; &amp;nbsp;Add Car&lt;/font&gt;&lt;/span&gt;&lt;/font&gt;&lt;/font&gt;&lt;/h3&gt;" style="rounded=0;whiteSpace=wrap;html=1;align=left;fillColor=#3333FF;strokeColor=#3333FF;" vertex="1" parent="1">
          <mxGeometry x="96.5" y="41" width="660" height="50" as="geometry" />
        </mxCell>
        <mxCell id="K4n_j_3E0sE-HWsx0Ezl-115" value="Car Details" style="text;html=1;align=center;verticalAlign=middle;whiteSpace=wrap;rounded=0;fontStyle=1;fontSize=16;" vertex="1" parent="1">
          <mxGeometry x="80.5" y="99" width="170" height="30" as="geometry" />
        </mxCell>
        <mxCell id="K4n_j_3E0sE-HWsx0Ezl-129" value="" style="rounded=0;whiteSpace=wrap;html=1;perimeterSpacing=0;glass=0;shadow=1;" vertex="1" parent="1">
          <mxGeometry x="114.5" y="133" width="608" height="247" as="geometry" />
        </mxCell>
        <mxCell id="K4n_j_3E0sE-HWsx0Ezl-130" value="&lt;h5 style=&quot;box-sizing: border-box; margin-top: 0px; margin-bottom: var(--bs-card-title-spacer-y); font-weight: 500; line-height: 1.2; color: rgb(33, 37, 41); font-size: 1.25rem; font-family: system-ui, -apple-system, &amp;quot;Segoe UI&amp;quot;, Roboto, &amp;quot;Helvetica Neue&amp;quot;, &amp;quot;Noto Sans&amp;quot;, &amp;quot;Liberation Sans&amp;quot;, Arial, sans-serif, &amp;quot;Apple Color Emoji&amp;quot;, &amp;quot;Segoe UI Emoji&amp;quot;, &amp;quot;Segoe UI Symbol&amp;quot;, &amp;quot;Noto Color Emoji&amp;quot;; text-align: start; background-color: rgb(255, 255, 255);&quot; class=&quot;card-title&quot;&gt;Audi Q6&amp;nbsp;(SUV)&lt;/h5&gt;&lt;p style=&quot;box-sizing: border-box; margin-top: 0px; margin-bottom: 1rem; color: rgb(33, 37, 41); font-family: system-ui, -apple-system, &amp;quot;Segoe UI&amp;quot;, Roboto, &amp;quot;Helvetica Neue&amp;quot;, &amp;quot;Noto Sans&amp;quot;, &amp;quot;Liberation Sans&amp;quot;, Arial, sans-serif, &amp;quot;Apple Color Emoji&amp;quot;, &amp;quot;Segoe UI Emoji&amp;quot;, &amp;quot;Segoe UI Symbol&amp;quot;, &amp;quot;Noto Color Emoji&amp;quot;; font-weight: 400; text-align: start; background-color: rgb(255, 255, 255);&quot;&gt;&lt;span style=&quot;box-sizing: border-box; font-weight: bolder;&quot;&gt;Car Number:&lt;/span&gt;&amp;nbsp;AR-1551&lt;/p&gt;&lt;p style=&quot;box-sizing: border-box; margin-top: 0px; margin-bottom: 1rem; color: rgb(33, 37, 41); font-family: system-ui, -apple-system, &amp;quot;Segoe UI&amp;quot;, Roboto, &amp;quot;Helvetica Neue&amp;quot;, &amp;quot;Noto Sans&amp;quot;, &amp;quot;Liberation Sans&amp;quot;, Arial, sans-serif, &amp;quot;Apple Color Emoji&amp;quot;, &amp;quot;Segoe UI Emoji&amp;quot;, &amp;quot;Segoe UI Symbol&amp;quot;, &amp;quot;Noto Color Emoji&amp;quot;; font-weight: 400; text-align: start; background-color: rgb(255, 255, 255);&quot;&gt;&lt;span style=&quot;box-sizing: border-box; font-weight: bolder;&quot;&gt;Car Type:&lt;/span&gt;&amp;nbsp;SUV&lt;/p&gt;&lt;p style=&quot;box-sizing: border-box; margin-top: 0px; margin-bottom: 1rem; color: rgb(33, 37, 41); font-family: system-ui, -apple-system, &amp;quot;Segoe UI&amp;quot;, Roboto, &amp;quot;Helvetica Neue&amp;quot;, &amp;quot;Noto Sans&amp;quot;, &amp;quot;Liberation Sans&amp;quot;, Arial, sans-serif, &amp;quot;Apple Color Emoji&amp;quot;, &amp;quot;Segoe UI Emoji&amp;quot;, &amp;quot;Segoe UI Symbol&amp;quot;, &amp;quot;Noto Color Emoji&amp;quot;; font-weight: 400; text-align: start; background-color: rgb(255, 255, 255);&quot;&gt;&lt;span style=&quot;box-sizing: border-box; font-weight: bolder;&quot;&gt;Incoming Time:&lt;/span&gt;&amp;nbsp;09:10&lt;/p&gt;&lt;p style=&quot;box-sizing: border-box; margin-top: 0px; margin-bottom: 1rem; color: rgb(33, 37, 41); font-family: system-ui, -apple-system, &amp;quot;Segoe UI&amp;quot;, Roboto, &amp;quot;Helvetica Neue&amp;quot;, &amp;quot;Noto Sans&amp;quot;, &amp;quot;Liberation Sans&amp;quot;, Arial, sans-serif, &amp;quot;Apple Color Emoji&amp;quot;, &amp;quot;Segoe UI Emoji&amp;quot;, &amp;quot;Segoe UI Symbol&amp;quot;, &amp;quot;Noto Color Emoji&amp;quot;; font-weight: 400; text-align: start; background-color: rgb(255, 255, 255);&quot;&gt;&lt;span style=&quot;box-sizing: border-box; font-weight: bolder;&quot;&gt;Outgoing Time:&lt;/span&gt;&amp;nbsp;17:06&lt;/p&gt;&lt;p style=&quot;box-sizing: border-box; margin-top: 0px; margin-bottom: 1rem; color: rgb(33, 37, 41); font-family: system-ui, -apple-system, &amp;quot;Segoe UI&amp;quot;, Roboto, &amp;quot;Helvetica Neue&amp;quot;, &amp;quot;Noto Sans&amp;quot;, &amp;quot;Liberation Sans&amp;quot;, Arial, sans-serif, &amp;quot;Apple Color Emoji&amp;quot;, &amp;quot;Segoe UI Emoji&amp;quot;, &amp;quot;Segoe UI Symbol&amp;quot;, &amp;quot;Noto Color Emoji&amp;quot;; font-weight: 400; text-align: start; background-color: rgb(255, 255, 255);&quot;&gt;&lt;span style=&quot;box-sizing: border-box; font-weight: bolder;&quot;&gt;Parking Slot:&lt;/span&gt;&amp;nbsp;A-2&lt;/p&gt;" style="text;html=1;align=center;verticalAlign=middle;whiteSpace=wrap;rounded=0;fontStyle=1;fontSize=16;" vertex="1" parent="1">
          <mxGeometry x="139.5" y="230" width="170" height="30" as="geometry" />
        </mxCell>
        <mxCell id="K4n_j_3E0sE-HWsx0Ezl-132" value="Back to List" style="rounded=1;whiteSpace=wrap;html=1;fillColor=#3333FF;fontColor=#FFFFFF;" vertex="1" parent="1">
          <mxGeometry x="151.5" y="340.5" width="79" height="23" as="geometry" />
        </mxCell>
        <mxCell id="K4n_j_3E0sE-HWsx0Ezl-171" value="" style="rounded=0;whiteSpace=wrap;html=1;" vertex="1" parent="1">
          <mxGeometry x="-370" y="-460" width="718" height="400" as="geometry" />
        </mxCell>
        <mxCell id="K4n_j_3E0sE-HWsx0Ezl-172" value="&lt;h3&gt;&lt;font style=&quot;color: rgb(255, 255, 255);&quot;&gt;&amp;nbsp; &amp;nbsp; &amp;nbsp; &lt;font style=&quot;&quot;&gt;&lt;span style=&quot;font-size: 20px;&quot;&gt;Car Parking System&amp;nbsp; &amp;nbsp; &amp;nbsp; &amp;nbsp; &amp;nbsp; &amp;nbsp; &amp;nbsp; &amp;nbsp; &amp;nbsp; &amp;nbsp; &amp;nbsp; &amp;nbsp; &amp;nbsp; &amp;nbsp; &amp;nbsp; &amp;nbsp; &amp;nbsp;&lt;/span&gt;&lt;span style=&quot;font-weight: normal;&quot;&gt;&lt;font style=&quot;font-size: 18px;&quot;&gt;Home&amp;nbsp; &amp;nbsp;Add Car&lt;/font&gt;&lt;/span&gt;&lt;/font&gt;&lt;/font&gt;&lt;/h3&gt;" style="rounded=0;whiteSpace=wrap;html=1;align=left;fillColor=#3333FF;strokeColor=#3333FF;" vertex="1" parent="1">
          <mxGeometry x="-340" y="-440" width="660" height="50" as="geometry" />
        </mxCell>
        <mxCell id="K4n_j_3E0sE-HWsx0Ezl-173" value="" style="shape=table;startSize=0;container=1;collapsible=0;childLayout=tableLayout;strokeColor=#CCCCCC;" vertex="1" parent="1">
          <mxGeometry x="-321" y="-326" width="621" height="96" as="geometry" />
        </mxCell>
        <mxCell id="K4n_j_3E0sE-HWsx0Ezl-174" value="" style="shape=tableRow;horizontal=0;startSize=0;swimlaneHead=0;swimlaneBody=0;strokeColor=inherit;top=0;left=0;bottom=0;right=0;collapsible=0;dropTarget=0;fillColor=none;points=[[0,0.5],[1,0.5]];portConstraint=eastwest;" vertex="1" parent="K4n_j_3E0sE-HWsx0Ezl-173">
          <mxGeometry width="621" height="40" as="geometry" />
        </mxCell>
        <mxCell id="K4n_j_3E0sE-HWsx0Ezl-175" value="#" style="shape=partialRectangle;html=1;whiteSpace=wrap;connectable=0;strokeColor=inherit;overflow=hidden;fillColor=#000000;top=0;left=0;bottom=0;right=0;pointerEvents=1;fontStyle=1;fontColor=#FFFFFF;fontSize=12;" vertex="1" parent="K4n_j_3E0sE-HWsx0Ezl-174">
          <mxGeometry width="30" height="40" as="geometry">
            <mxRectangle width="30" height="40" as="alternateBounds" />
          </mxGeometry>
        </mxCell>
        <mxCell id="K4n_j_3E0sE-HWsx0Ezl-176" value="Car Brand" style="shape=partialRectangle;html=1;whiteSpace=wrap;connectable=0;strokeColor=inherit;overflow=hidden;fillColor=#000000;top=0;left=0;bottom=0;right=0;pointerEvents=1;fontStyle=1;fontColor=#FFFFFF;fontSize=12;" vertex="1" parent="K4n_j_3E0sE-HWsx0Ezl-174">
          <mxGeometry x="30" width="70" height="40" as="geometry">
            <mxRectangle width="70" height="40" as="alternateBounds" />
          </mxGeometry>
        </mxCell>
        <mxCell id="K4n_j_3E0sE-HWsx0Ezl-177" value="Car Number" style="shape=partialRectangle;html=1;whiteSpace=wrap;connectable=0;strokeColor=inherit;overflow=hidden;fillColor=#000000;top=0;left=0;bottom=0;right=0;pointerEvents=1;fontStyle=1;fontColor=#FFFFFF;fontSize=12;" vertex="1" parent="K4n_j_3E0sE-HWsx0Ezl-174">
          <mxGeometry x="100" width="90" height="40" as="geometry">
            <mxRectangle width="90" height="40" as="alternateBounds" />
          </mxGeometry>
        </mxCell>
        <mxCell id="K4n_j_3E0sE-HWsx0Ezl-178" value="Car Type" style="shape=partialRectangle;html=1;whiteSpace=wrap;connectable=0;strokeColor=inherit;overflow=hidden;fillColor=#000000;top=0;left=0;bottom=0;right=0;pointerEvents=1;fontStyle=1;fontColor=#FFFFFF;fontSize=12;" vertex="1" parent="K4n_j_3E0sE-HWsx0Ezl-174">
          <mxGeometry x="190" width="60" height="40" as="geometry">
            <mxRectangle width="60" height="40" as="alternateBounds" />
          </mxGeometry>
        </mxCell>
        <mxCell id="K4n_j_3E0sE-HWsx0Ezl-179" value="Incoming Time" style="shape=partialRectangle;html=1;whiteSpace=wrap;connectable=0;strokeColor=inherit;overflow=hidden;fillColor=#000000;top=0;left=0;bottom=0;right=0;pointerEvents=1;fontStyle=1;fontColor=#FFFFFF;fontSize=12;" vertex="1" parent="K4n_j_3E0sE-HWsx0Ezl-174">
          <mxGeometry x="250" width="88" height="40" as="geometry">
            <mxRectangle width="88" height="40" as="alternateBounds" />
          </mxGeometry>
        </mxCell>
        <mxCell id="K4n_j_3E0sE-HWsx0Ezl-180" value="Outgoing Time" style="shape=partialRectangle;html=1;whiteSpace=wrap;connectable=0;strokeColor=inherit;overflow=hidden;fillColor=#000000;top=0;left=0;bottom=0;right=0;pointerEvents=1;fontStyle=1;fontColor=#FFFFFF;fontSize=12;" vertex="1" parent="K4n_j_3E0sE-HWsx0Ezl-174">
          <mxGeometry x="338" width="93" height="40" as="geometry">
            <mxRectangle width="93" height="40" as="alternateBounds" />
          </mxGeometry>
        </mxCell>
        <mxCell id="K4n_j_3E0sE-HWsx0Ezl-181" value="Parking Slot" style="shape=partialRectangle;html=1;whiteSpace=wrap;connectable=0;strokeColor=inherit;overflow=hidden;fillColor=#000000;top=0;left=0;bottom=0;right=0;pointerEvents=1;fontStyle=1;fontColor=#FFFFFF;fontSize=12;" vertex="1" parent="K4n_j_3E0sE-HWsx0Ezl-174">
          <mxGeometry x="431" width="80" height="40" as="geometry">
            <mxRectangle width="80" height="40" as="alternateBounds" />
          </mxGeometry>
        </mxCell>
        <mxCell id="K4n_j_3E0sE-HWsx0Ezl-182" value="Action" style="shape=partialRectangle;html=1;whiteSpace=wrap;connectable=0;strokeColor=inherit;overflow=hidden;fillColor=#000000;top=0;left=0;bottom=0;right=0;pointerEvents=1;fontStyle=1;fontColor=#FFFFFF;fontSize=12;" vertex="1" parent="K4n_j_3E0sE-HWsx0Ezl-174">
          <mxGeometry x="511" width="110" height="40" as="geometry">
            <mxRectangle width="110" height="40" as="alternateBounds" />
          </mxGeometry>
        </mxCell>
        <mxCell id="K4n_j_3E0sE-HWsx0Ezl-183" value="" style="shape=tableRow;horizontal=0;startSize=0;swimlaneHead=0;swimlaneBody=0;strokeColor=inherit;top=0;left=0;bottom=0;right=0;collapsible=0;dropTarget=0;fillColor=none;points=[[0,0.5],[1,0.5]];portConstraint=eastwest;" vertex="1" parent="K4n_j_3E0sE-HWsx0Ezl-173">
          <mxGeometry y="40" width="621" height="26" as="geometry" />
        </mxCell>
        <mxCell id="K4n_j_3E0sE-HWsx0Ezl-184" value="1" style="shape=partialRectangle;html=1;whiteSpace=wrap;connectable=0;strokeColor=inherit;overflow=hidden;fillColor=none;top=0;left=0;bottom=0;right=0;pointerEvents=1;" vertex="1" parent="K4n_j_3E0sE-HWsx0Ezl-183">
          <mxGeometry width="30" height="26" as="geometry">
            <mxRectangle width="30" height="26" as="alternateBounds" />
          </mxGeometry>
        </mxCell>
        <mxCell id="K4n_j_3E0sE-HWsx0Ezl-185" value="Benz" style="shape=partialRectangle;html=1;whiteSpace=wrap;connectable=0;strokeColor=inherit;overflow=hidden;fillColor=none;top=0;left=0;bottom=0;right=0;pointerEvents=1;" vertex="1" parent="K4n_j_3E0sE-HWsx0Ezl-183">
          <mxGeometry x="30" width="70" height="26" as="geometry">
            <mxRectangle width="70" height="26" as="alternateBounds" />
          </mxGeometry>
        </mxCell>
        <mxCell id="K4n_j_3E0sE-HWsx0Ezl-186" value="KA-04 AR-1551" style="shape=partialRectangle;html=1;whiteSpace=wrap;connectable=0;strokeColor=inherit;overflow=hidden;fillColor=none;top=0;left=0;bottom=0;right=0;pointerEvents=1;" vertex="1" parent="K4n_j_3E0sE-HWsx0Ezl-183">
          <mxGeometry x="100" width="90" height="26" as="geometry">
            <mxRectangle width="90" height="26" as="alternateBounds" />
          </mxGeometry>
        </mxCell>
        <mxCell id="K4n_j_3E0sE-HWsx0Ezl-187" value="SUV" style="shape=partialRectangle;html=1;whiteSpace=wrap;connectable=0;strokeColor=inherit;overflow=hidden;fillColor=none;top=0;left=0;bottom=0;right=0;pointerEvents=1;" vertex="1" parent="K4n_j_3E0sE-HWsx0Ezl-183">
          <mxGeometry x="190" width="60" height="26" as="geometry">
            <mxRectangle width="60" height="26" as="alternateBounds" />
          </mxGeometry>
        </mxCell>
        <mxCell id="K4n_j_3E0sE-HWsx0Ezl-188" value="10:20" style="shape=partialRectangle;html=1;whiteSpace=wrap;connectable=0;strokeColor=inherit;overflow=hidden;fillColor=none;top=0;left=0;bottom=0;right=0;pointerEvents=1;" vertex="1" parent="K4n_j_3E0sE-HWsx0Ezl-183">
          <mxGeometry x="250" width="88" height="26" as="geometry">
            <mxRectangle width="88" height="26" as="alternateBounds" />
          </mxGeometry>
        </mxCell>
        <mxCell id="K4n_j_3E0sE-HWsx0Ezl-189" value="12:24" style="shape=partialRectangle;html=1;whiteSpace=wrap;connectable=0;strokeColor=inherit;overflow=hidden;fillColor=none;top=0;left=0;bottom=0;right=0;pointerEvents=1;" vertex="1" parent="K4n_j_3E0sE-HWsx0Ezl-183">
          <mxGeometry x="338" width="93" height="26" as="geometry">
            <mxRectangle width="93" height="26" as="alternateBounds" />
          </mxGeometry>
        </mxCell>
        <mxCell id="K4n_j_3E0sE-HWsx0Ezl-190" value="A-1" style="shape=partialRectangle;html=1;whiteSpace=wrap;connectable=0;strokeColor=inherit;overflow=hidden;fillColor=none;top=0;left=0;bottom=0;right=0;pointerEvents=1;" vertex="1" parent="K4n_j_3E0sE-HWsx0Ezl-183">
          <mxGeometry x="431" width="80" height="26" as="geometry">
            <mxRectangle width="80" height="26" as="alternateBounds" />
          </mxGeometry>
        </mxCell>
        <mxCell id="K4n_j_3E0sE-HWsx0Ezl-191" value="" style="shape=partialRectangle;html=1;whiteSpace=wrap;connectable=0;strokeColor=inherit;overflow=hidden;fillColor=none;top=0;left=0;bottom=0;right=0;pointerEvents=1;" vertex="1" parent="K4n_j_3E0sE-HWsx0Ezl-183">
          <mxGeometry x="511" width="110" height="26" as="geometry">
            <mxRectangle width="110" height="26" as="alternateBounds" />
          </mxGeometry>
        </mxCell>
        <mxCell id="K4n_j_3E0sE-HWsx0Ezl-192" value="" style="shape=tableRow;horizontal=0;startSize=0;swimlaneHead=0;swimlaneBody=0;strokeColor=inherit;top=0;left=0;bottom=0;right=0;collapsible=0;dropTarget=0;fillColor=none;points=[[0,0.5],[1,0.5]];portConstraint=eastwest;" vertex="1" parent="K4n_j_3E0sE-HWsx0Ezl-173">
          <mxGeometry y="66" width="621" height="30" as="geometry" />
        </mxCell>
        <mxCell id="K4n_j_3E0sE-HWsx0Ezl-193" value="2" style="shape=partialRectangle;html=1;whiteSpace=wrap;connectable=0;strokeColor=inherit;overflow=hidden;fillColor=none;top=0;left=0;bottom=0;right=0;pointerEvents=1;" vertex="1" parent="K4n_j_3E0sE-HWsx0Ezl-192">
          <mxGeometry width="30" height="30" as="geometry">
            <mxRectangle width="30" height="30" as="alternateBounds" />
          </mxGeometry>
        </mxCell>
        <mxCell id="K4n_j_3E0sE-HWsx0Ezl-194" value="Audi" style="shape=partialRectangle;html=1;whiteSpace=wrap;connectable=0;strokeColor=inherit;overflow=hidden;fillColor=none;top=0;left=0;bottom=0;right=0;pointerEvents=1;" vertex="1" parent="K4n_j_3E0sE-HWsx0Ezl-192">
          <mxGeometry x="30" width="70" height="30" as="geometry">
            <mxRectangle width="70" height="30" as="alternateBounds" />
          </mxGeometry>
        </mxCell>
        <mxCell id="K4n_j_3E0sE-HWsx0Ezl-195" value="KA-01 AJ-2001" style="shape=partialRectangle;html=1;whiteSpace=wrap;connectable=0;strokeColor=inherit;overflow=hidden;fillColor=none;top=0;left=0;bottom=0;right=0;pointerEvents=1;" vertex="1" parent="K4n_j_3E0sE-HWsx0Ezl-192">
          <mxGeometry x="100" width="90" height="30" as="geometry">
            <mxRectangle width="90" height="30" as="alternateBounds" />
          </mxGeometry>
        </mxCell>
        <mxCell id="K4n_j_3E0sE-HWsx0Ezl-196" value="XUV" style="shape=partialRectangle;html=1;whiteSpace=wrap;connectable=0;strokeColor=inherit;overflow=hidden;fillColor=none;top=0;left=0;bottom=0;right=0;pointerEvents=1;" vertex="1" parent="K4n_j_3E0sE-HWsx0Ezl-192">
          <mxGeometry x="190" width="60" height="30" as="geometry">
            <mxRectangle width="60" height="30" as="alternateBounds" />
          </mxGeometry>
        </mxCell>
        <mxCell id="K4n_j_3E0sE-HWsx0Ezl-197" value="07:30" style="shape=partialRectangle;html=1;whiteSpace=wrap;connectable=0;strokeColor=inherit;overflow=hidden;fillColor=none;top=0;left=0;bottom=0;right=0;pointerEvents=1;" vertex="1" parent="K4n_j_3E0sE-HWsx0Ezl-192">
          <mxGeometry x="250" width="88" height="30" as="geometry">
            <mxRectangle width="88" height="30" as="alternateBounds" />
          </mxGeometry>
        </mxCell>
        <mxCell id="K4n_j_3E0sE-HWsx0Ezl-198" value="14:30" style="shape=partialRectangle;html=1;whiteSpace=wrap;connectable=0;strokeColor=inherit;overflow=hidden;fillColor=none;top=0;left=0;bottom=0;right=0;pointerEvents=1;" vertex="1" parent="K4n_j_3E0sE-HWsx0Ezl-192">
          <mxGeometry x="338" width="93" height="30" as="geometry">
            <mxRectangle width="93" height="30" as="alternateBounds" />
          </mxGeometry>
        </mxCell>
        <mxCell id="K4n_j_3E0sE-HWsx0Ezl-199" value="B-1" style="shape=partialRectangle;html=1;whiteSpace=wrap;connectable=0;strokeColor=inherit;overflow=hidden;fillColor=none;top=0;left=0;bottom=0;right=0;pointerEvents=1;" vertex="1" parent="K4n_j_3E0sE-HWsx0Ezl-192">
          <mxGeometry x="431" width="80" height="30" as="geometry">
            <mxRectangle width="80" height="30" as="alternateBounds" />
          </mxGeometry>
        </mxCell>
        <mxCell id="K4n_j_3E0sE-HWsx0Ezl-200" value="" style="shape=partialRectangle;html=1;whiteSpace=wrap;connectable=0;strokeColor=inherit;overflow=hidden;fillColor=none;top=0;left=0;bottom=0;right=0;pointerEvents=1;" vertex="1" parent="K4n_j_3E0sE-HWsx0Ezl-192">
          <mxGeometry x="511" width="110" height="30" as="geometry">
            <mxRectangle width="110" height="30" as="alternateBounds" />
          </mxGeometry>
        </mxCell>
        <mxCell id="K4n_j_3E0sE-HWsx0Ezl-201" value="Car Parking List" style="text;html=1;align=center;verticalAlign=middle;whiteSpace=wrap;rounded=0;fontStyle=1;fontSize=16;" vertex="1" parent="1">
          <mxGeometry x="-334" y="-360" width="170" height="30" as="geometry" />
        </mxCell>
        <mxCell id="K4n_j_3E0sE-HWsx0Ezl-202" value="Add New Car" style="rounded=1;whiteSpace=wrap;html=1;fillColor=#55AB51;fontColor=#FFFFFF;" vertex="1" parent="1">
          <mxGeometry x="200" y="-370" width="80" height="30" as="geometry" />
        </mxCell>
        <mxCell id="K4n_j_3E0sE-HWsx0Ezl-203" value="&lt;font style=&quot;font-size: 8px;&quot;&gt;View&lt;/font&gt;" style="rounded=1;whiteSpace=wrap;html=1;fillColor=#28FFF7;fontColor=#4D4D4D;" vertex="1" parent="1">
          <mxGeometry x="195" y="-283" width="30" height="20" as="geometry" />
        </mxCell>
        <mxCell id="K4n_j_3E0sE-HWsx0Ezl-204" value="&lt;font style=&quot;font-size: 8px;&quot;&gt;Edit&lt;/font&gt;" style="rounded=1;whiteSpace=wrap;html=1;fillColor=#FFFF66;fontColor=#000000;" vertex="1" parent="1">
          <mxGeometry x="229" y="-283" width="30" height="20" as="geometry" />
        </mxCell>
        <mxCell id="K4n_j_3E0sE-HWsx0Ezl-205" value="&lt;font style=&quot;font-size: 8px;&quot;&gt;Delete&lt;/font&gt;" style="rounded=1;whiteSpace=wrap;html=1;fillColor=#CC0000;fontColor=#FFFFFF;" vertex="1" parent="1">
          <mxGeometry x="263" y="-283" width="30" height="20" as="geometry" />
        </mxCell>
        <mxCell id="K4n_j_3E0sE-HWsx0Ezl-206" value="&lt;font style=&quot;font-size: 8px;&quot;&gt;View&lt;/font&gt;" style="rounded=1;whiteSpace=wrap;html=1;fillColor=#28FFF7;fontColor=#4D4D4D;" vertex="1" parent="1">
          <mxGeometry x="195" y="-255" width="30" height="20" as="geometry" />
        </mxCell>
        <mxCell id="K4n_j_3E0sE-HWsx0Ezl-207" value="&lt;font style=&quot;font-size: 8px;&quot;&gt;Edit&lt;/font&gt;" style="rounded=1;whiteSpace=wrap;html=1;fillColor=#FFFF66;fontColor=#000000;" vertex="1" parent="1">
          <mxGeometry x="229" y="-255" width="30" height="20" as="geometry" />
        </mxCell>
        <mxCell id="K4n_j_3E0sE-HWsx0Ezl-208" value="&lt;font style=&quot;font-size: 8px;&quot;&gt;Delete&lt;/font&gt;" style="rounded=1;whiteSpace=wrap;html=1;fillColor=#CC0000;fontColor=#FFFFFF;" vertex="1" parent="1">
          <mxGeometry x="263" y="-255" width="30" height="20" as="geometry" />
        </mxCell>
        <mxCell id="K4n_j_3E0sE-HWsx0Ezl-217" value="" style="rounded=0;whiteSpace=wrap;html=1;" vertex="1" parent="1">
          <mxGeometry x="-210" y="-400" width="380" height="90" as="geometry" />
        </mxCell>
        <mxCell id="K4n_j_3E0sE-HWsx0Ezl-218" value="Confirm Deletion" style="text;html=1;align=center;verticalAlign=middle;whiteSpace=wrap;rounded=0;fontStyle=1;fontSize=14;" vertex="1" parent="1">
          <mxGeometry x="-202" y="-395" width="123" height="30" as="geometry" />
        </mxCell>
        <mxCell id="K4n_j_3E0sE-HWsx0Ezl-219" value="" style="endArrow=none;html=1;rounded=0;fontSize=12;startSize=8;endSize=7;curved=0;exitX=-0.003;exitY=0.35;exitDx=0;exitDy=0;entryX=1;entryY=0.333;entryDx=0;entryDy=0;entryPerimeter=0;exitPerimeter=0;strokeColor=#CCCCCC;" edge="1" parent="1">
          <mxGeometry width="50" height="50" relative="1" as="geometry">
            <mxPoint x="-210.1400000000001" y="-364.4999999999998" as="sourcePoint" />
            <mxPoint x="171" y="-366.03" as="targetPoint" />
          </mxGeometry>
        </mxCell>
        <mxCell id="K4n_j_3E0sE-HWsx0Ezl-220" value="" style="endArrow=none;html=1;rounded=0;fontSize=12;startSize=8;endSize=7;curved=0;exitX=-0.003;exitY=0.35;exitDx=0;exitDy=0;entryX=1;entryY=0.333;entryDx=0;entryDy=0;entryPerimeter=0;exitPerimeter=0;strokeColor=#CCCCCC;" edge="1" parent="1">
          <mxGeometry width="50" height="50" relative="1" as="geometry">
            <mxPoint x="-209.1400000000001" y="-339.4999999999998" as="sourcePoint" />
            <mxPoint x="172" y="-341.03" as="targetPoint" />
          </mxGeometry>
        </mxCell>
        <mxCell id="K4n_j_3E0sE-HWsx0Ezl-221" value="&lt;span style=&quot;color: rgb(33, 37, 41); font-family: system-ui, -apple-system, &amp;quot;Segoe UI&amp;quot;, Roboto, &amp;quot;Helvetica Neue&amp;quot;, &amp;quot;Noto Sans&amp;quot;, &amp;quot;Liberation Sans&amp;quot;, Arial, sans-serif, &amp;quot;Apple Color Emoji&amp;quot;, &amp;quot;Segoe UI Emoji&amp;quot;, &amp;quot;Segoe UI Symbol&amp;quot;, &amp;quot;Noto Color Emoji&amp;quot;; text-align: start;&quot;&gt;&lt;font&gt;Are you sure you want to delete this car?&lt;/font&gt;&lt;/span&gt;" style="text;html=1;align=center;verticalAlign=middle;whiteSpace=wrap;rounded=0;" vertex="1" parent="1">
          <mxGeometry x="-249.5" y="-367" width="320.5" height="30" as="geometry" />
        </mxCell>
        <mxCell id="K4n_j_3E0sE-HWsx0Ezl-222" value="&lt;font style=&quot;font-size: 8px;&quot;&gt;Cancel&lt;/font&gt;" style="rounded=1;whiteSpace=wrap;html=1;fillColor=#808080;fontColor=#FFFFFF;verticalAlign=bottom;" vertex="1" parent="1">
          <mxGeometry x="79" y="-335" width="31" height="15" as="geometry" />
        </mxCell>
        <mxCell id="K4n_j_3E0sE-HWsx0Ezl-223" value="&lt;font style=&quot;font-size: 8px; line-height: 100%;&quot;&gt;Delete&lt;/font&gt;" style="rounded=1;whiteSpace=wrap;html=1;fillColor=#FF0000;fontColor=#FFFFFF;strokeWidth=1;verticalAlign=bottom;" vertex="1" parent="1">
          <mxGeometry x="115" y="-335" width="27" height="15" as="geometry" />
        </mxCell>
        <mxCell id="K4n_j_3E0sE-HWsx0Ezl-224" value="X" style="text;html=1;align=center;verticalAlign=middle;whiteSpace=wrap;rounded=0;fontStyle=0;fontSize=14;" vertex="1" parent="1">
          <mxGeometry x="86" y="-395" width="123" height="30" as="geometry" />
        </mxCell>
        <mxCell id="K4n_j_3E0sE-HWsx0Ezl-225" value="" style="rounded=0;whiteSpace=wrap;html=1;" vertex="1" parent="1">
          <mxGeometry x="-810" y="-950" width="718" height="400" as="geometry" />
        </mxCell>
        <mxCell id="K4n_j_3E0sE-HWsx0Ezl-226" value="&lt;h3&gt;&lt;font style=&quot;color: rgb(255, 255, 255);&quot;&gt;&amp;nbsp; &amp;nbsp; &amp;nbsp; &lt;font style=&quot;&quot;&gt;&lt;span style=&quot;font-size: 20px;&quot;&gt;Car Parking System&amp;nbsp; &amp;nbsp; &amp;nbsp; &amp;nbsp; &amp;nbsp; &amp;nbsp; &amp;nbsp; &amp;nbsp; &amp;nbsp; &amp;nbsp; &amp;nbsp; &amp;nbsp; &amp;nbsp; &amp;nbsp; &amp;nbsp; &amp;nbsp; &amp;nbsp;&lt;/span&gt;&lt;span style=&quot;font-weight: normal;&quot;&gt;&lt;font style=&quot;font-size: 18px;&quot;&gt;Home&amp;nbsp; &amp;nbsp;Add Car&lt;/font&gt;&lt;/span&gt;&lt;/font&gt;&lt;/font&gt;&lt;/h3&gt;" style="rounded=0;whiteSpace=wrap;html=1;align=left;fillColor=#3333FF;strokeColor=#3333FF;" vertex="1" parent="1">
          <mxGeometry x="-780" y="-930" width="660" height="50" as="geometry" />
        </mxCell>
        <mxCell id="K4n_j_3E0sE-HWsx0Ezl-227" value="" style="shape=table;startSize=0;container=1;collapsible=0;childLayout=tableLayout;strokeColor=#CCCCCC;" vertex="1" parent="1">
          <mxGeometry x="-761" y="-816" width="621" height="96" as="geometry" />
        </mxCell>
        <mxCell id="K4n_j_3E0sE-HWsx0Ezl-228" value="" style="shape=tableRow;horizontal=0;startSize=0;swimlaneHead=0;swimlaneBody=0;strokeColor=inherit;top=0;left=0;bottom=0;right=0;collapsible=0;dropTarget=0;fillColor=none;points=[[0,0.5],[1,0.5]];portConstraint=eastwest;" vertex="1" parent="K4n_j_3E0sE-HWsx0Ezl-227">
          <mxGeometry width="621" height="40" as="geometry" />
        </mxCell>
        <mxCell id="K4n_j_3E0sE-HWsx0Ezl-229" value="#" style="shape=partialRectangle;html=1;whiteSpace=wrap;connectable=0;strokeColor=inherit;overflow=hidden;fillColor=#000000;top=0;left=0;bottom=0;right=0;pointerEvents=1;fontStyle=1;fontColor=#FFFFFF;fontSize=12;" vertex="1" parent="K4n_j_3E0sE-HWsx0Ezl-228">
          <mxGeometry width="30" height="40" as="geometry">
            <mxRectangle width="30" height="40" as="alternateBounds" />
          </mxGeometry>
        </mxCell>
        <mxCell id="K4n_j_3E0sE-HWsx0Ezl-230" value="Car Brand" style="shape=partialRectangle;html=1;whiteSpace=wrap;connectable=0;strokeColor=inherit;overflow=hidden;fillColor=#000000;top=0;left=0;bottom=0;right=0;pointerEvents=1;fontStyle=1;fontColor=#FFFFFF;fontSize=12;" vertex="1" parent="K4n_j_3E0sE-HWsx0Ezl-228">
          <mxGeometry x="30" width="70" height="40" as="geometry">
            <mxRectangle width="70" height="40" as="alternateBounds" />
          </mxGeometry>
        </mxCell>
        <mxCell id="K4n_j_3E0sE-HWsx0Ezl-231" value="Car Number" style="shape=partialRectangle;html=1;whiteSpace=wrap;connectable=0;strokeColor=inherit;overflow=hidden;fillColor=#000000;top=0;left=0;bottom=0;right=0;pointerEvents=1;fontStyle=1;fontColor=#FFFFFF;fontSize=12;" vertex="1" parent="K4n_j_3E0sE-HWsx0Ezl-228">
          <mxGeometry x="100" width="90" height="40" as="geometry">
            <mxRectangle width="90" height="40" as="alternateBounds" />
          </mxGeometry>
        </mxCell>
        <mxCell id="K4n_j_3E0sE-HWsx0Ezl-232" value="Car Type" style="shape=partialRectangle;html=1;whiteSpace=wrap;connectable=0;strokeColor=inherit;overflow=hidden;fillColor=#000000;top=0;left=0;bottom=0;right=0;pointerEvents=1;fontStyle=1;fontColor=#FFFFFF;fontSize=12;" vertex="1" parent="K4n_j_3E0sE-HWsx0Ezl-228">
          <mxGeometry x="190" width="60" height="40" as="geometry">
            <mxRectangle width="60" height="40" as="alternateBounds" />
          </mxGeometry>
        </mxCell>
        <mxCell id="K4n_j_3E0sE-HWsx0Ezl-233" value="Incoming Time" style="shape=partialRectangle;html=1;whiteSpace=wrap;connectable=0;strokeColor=inherit;overflow=hidden;fillColor=#000000;top=0;left=0;bottom=0;right=0;pointerEvents=1;fontStyle=1;fontColor=#FFFFFF;fontSize=12;" vertex="1" parent="K4n_j_3E0sE-HWsx0Ezl-228">
          <mxGeometry x="250" width="88" height="40" as="geometry">
            <mxRectangle width="88" height="40" as="alternateBounds" />
          </mxGeometry>
        </mxCell>
        <mxCell id="K4n_j_3E0sE-HWsx0Ezl-234" value="Outgoing Time" style="shape=partialRectangle;html=1;whiteSpace=wrap;connectable=0;strokeColor=inherit;overflow=hidden;fillColor=#000000;top=0;left=0;bottom=0;right=0;pointerEvents=1;fontStyle=1;fontColor=#FFFFFF;fontSize=12;" vertex="1" parent="K4n_j_3E0sE-HWsx0Ezl-228">
          <mxGeometry x="338" width="93" height="40" as="geometry">
            <mxRectangle width="93" height="40" as="alternateBounds" />
          </mxGeometry>
        </mxCell>
        <mxCell id="K4n_j_3E0sE-HWsx0Ezl-235" value="Parking Slot" style="shape=partialRectangle;html=1;whiteSpace=wrap;connectable=0;strokeColor=inherit;overflow=hidden;fillColor=#000000;top=0;left=0;bottom=0;right=0;pointerEvents=1;fontStyle=1;fontColor=#FFFFFF;fontSize=12;" vertex="1" parent="K4n_j_3E0sE-HWsx0Ezl-228">
          <mxGeometry x="431" width="80" height="40" as="geometry">
            <mxRectangle width="80" height="40" as="alternateBounds" />
          </mxGeometry>
        </mxCell>
        <mxCell id="K4n_j_3E0sE-HWsx0Ezl-236" value="Action" style="shape=partialRectangle;html=1;whiteSpace=wrap;connectable=0;strokeColor=inherit;overflow=hidden;fillColor=#000000;top=0;left=0;bottom=0;right=0;pointerEvents=1;fontStyle=1;fontColor=#FFFFFF;fontSize=12;" vertex="1" parent="K4n_j_3E0sE-HWsx0Ezl-228">
          <mxGeometry x="511" width="110" height="40" as="geometry">
            <mxRectangle width="110" height="40" as="alternateBounds" />
          </mxGeometry>
        </mxCell>
        <mxCell id="K4n_j_3E0sE-HWsx0Ezl-237" value="" style="shape=tableRow;horizontal=0;startSize=0;swimlaneHead=0;swimlaneBody=0;strokeColor=inherit;top=0;left=0;bottom=0;right=0;collapsible=0;dropTarget=0;fillColor=none;points=[[0,0.5],[1,0.5]];portConstraint=eastwest;" vertex="1" parent="K4n_j_3E0sE-HWsx0Ezl-227">
          <mxGeometry y="40" width="621" height="26" as="geometry" />
        </mxCell>
        <mxCell id="K4n_j_3E0sE-HWsx0Ezl-238" value="1" style="shape=partialRectangle;html=1;whiteSpace=wrap;connectable=0;strokeColor=inherit;overflow=hidden;fillColor=none;top=0;left=0;bottom=0;right=0;pointerEvents=1;" vertex="1" parent="K4n_j_3E0sE-HWsx0Ezl-237">
          <mxGeometry width="30" height="26" as="geometry">
            <mxRectangle width="30" height="26" as="alternateBounds" />
          </mxGeometry>
        </mxCell>
        <mxCell id="K4n_j_3E0sE-HWsx0Ezl-239" value="Benz" style="shape=partialRectangle;html=1;whiteSpace=wrap;connectable=0;strokeColor=inherit;overflow=hidden;fillColor=none;top=0;left=0;bottom=0;right=0;pointerEvents=1;" vertex="1" parent="K4n_j_3E0sE-HWsx0Ezl-237">
          <mxGeometry x="30" width="70" height="26" as="geometry">
            <mxRectangle width="70" height="26" as="alternateBounds" />
          </mxGeometry>
        </mxCell>
        <mxCell id="K4n_j_3E0sE-HWsx0Ezl-240" value="KA-04 AR-1551" style="shape=partialRectangle;html=1;whiteSpace=wrap;connectable=0;strokeColor=inherit;overflow=hidden;fillColor=none;top=0;left=0;bottom=0;right=0;pointerEvents=1;" vertex="1" parent="K4n_j_3E0sE-HWsx0Ezl-237">
          <mxGeometry x="100" width="90" height="26" as="geometry">
            <mxRectangle width="90" height="26" as="alternateBounds" />
          </mxGeometry>
        </mxCell>
        <mxCell id="K4n_j_3E0sE-HWsx0Ezl-241" value="SUV" style="shape=partialRectangle;html=1;whiteSpace=wrap;connectable=0;strokeColor=inherit;overflow=hidden;fillColor=none;top=0;left=0;bottom=0;right=0;pointerEvents=1;" vertex="1" parent="K4n_j_3E0sE-HWsx0Ezl-237">
          <mxGeometry x="190" width="60" height="26" as="geometry">
            <mxRectangle width="60" height="26" as="alternateBounds" />
          </mxGeometry>
        </mxCell>
        <mxCell id="K4n_j_3E0sE-HWsx0Ezl-242" value="10:20" style="shape=partialRectangle;html=1;whiteSpace=wrap;connectable=0;strokeColor=inherit;overflow=hidden;fillColor=none;top=0;left=0;bottom=0;right=0;pointerEvents=1;" vertex="1" parent="K4n_j_3E0sE-HWsx0Ezl-237">
          <mxGeometry x="250" width="88" height="26" as="geometry">
            <mxRectangle width="88" height="26" as="alternateBounds" />
          </mxGeometry>
        </mxCell>
        <mxCell id="K4n_j_3E0sE-HWsx0Ezl-243" value="12:24" style="shape=partialRectangle;html=1;whiteSpace=wrap;connectable=0;strokeColor=inherit;overflow=hidden;fillColor=none;top=0;left=0;bottom=0;right=0;pointerEvents=1;" vertex="1" parent="K4n_j_3E0sE-HWsx0Ezl-237">
          <mxGeometry x="338" width="93" height="26" as="geometry">
            <mxRectangle width="93" height="26" as="alternateBounds" />
          </mxGeometry>
        </mxCell>
        <mxCell id="K4n_j_3E0sE-HWsx0Ezl-244" value="A-1" style="shape=partialRectangle;html=1;whiteSpace=wrap;connectable=0;strokeColor=inherit;overflow=hidden;fillColor=none;top=0;left=0;bottom=0;right=0;pointerEvents=1;" vertex="1" parent="K4n_j_3E0sE-HWsx0Ezl-237">
          <mxGeometry x="431" width="80" height="26" as="geometry">
            <mxRectangle width="80" height="26" as="alternateBounds" />
          </mxGeometry>
        </mxCell>
        <mxCell id="K4n_j_3E0sE-HWsx0Ezl-245" value="" style="shape=partialRectangle;html=1;whiteSpace=wrap;connectable=0;strokeColor=inherit;overflow=hidden;fillColor=none;top=0;left=0;bottom=0;right=0;pointerEvents=1;" vertex="1" parent="K4n_j_3E0sE-HWsx0Ezl-237">
          <mxGeometry x="511" width="110" height="26" as="geometry">
            <mxRectangle width="110" height="26" as="alternateBounds" />
          </mxGeometry>
        </mxCell>
        <mxCell id="K4n_j_3E0sE-HWsx0Ezl-246" value="" style="shape=tableRow;horizontal=0;startSize=0;swimlaneHead=0;swimlaneBody=0;strokeColor=inherit;top=0;left=0;bottom=0;right=0;collapsible=0;dropTarget=0;fillColor=none;points=[[0,0.5],[1,0.5]];portConstraint=eastwest;" vertex="1" parent="K4n_j_3E0sE-HWsx0Ezl-227">
          <mxGeometry y="66" width="621" height="30" as="geometry" />
        </mxCell>
        <mxCell id="K4n_j_3E0sE-HWsx0Ezl-247" value="2" style="shape=partialRectangle;html=1;whiteSpace=wrap;connectable=0;strokeColor=inherit;overflow=hidden;fillColor=none;top=0;left=0;bottom=0;right=0;pointerEvents=1;" vertex="1" parent="K4n_j_3E0sE-HWsx0Ezl-246">
          <mxGeometry width="30" height="30" as="geometry">
            <mxRectangle width="30" height="30" as="alternateBounds" />
          </mxGeometry>
        </mxCell>
        <mxCell id="K4n_j_3E0sE-HWsx0Ezl-248" value="Audi" style="shape=partialRectangle;html=1;whiteSpace=wrap;connectable=0;strokeColor=inherit;overflow=hidden;fillColor=none;top=0;left=0;bottom=0;right=0;pointerEvents=1;" vertex="1" parent="K4n_j_3E0sE-HWsx0Ezl-246">
          <mxGeometry x="30" width="70" height="30" as="geometry">
            <mxRectangle width="70" height="30" as="alternateBounds" />
          </mxGeometry>
        </mxCell>
        <mxCell id="K4n_j_3E0sE-HWsx0Ezl-249" value="KA-01 AJ-2001" style="shape=partialRectangle;html=1;whiteSpace=wrap;connectable=0;strokeColor=inherit;overflow=hidden;fillColor=none;top=0;left=0;bottom=0;right=0;pointerEvents=1;" vertex="1" parent="K4n_j_3E0sE-HWsx0Ezl-246">
          <mxGeometry x="100" width="90" height="30" as="geometry">
            <mxRectangle width="90" height="30" as="alternateBounds" />
          </mxGeometry>
        </mxCell>
        <mxCell id="K4n_j_3E0sE-HWsx0Ezl-250" value="XUV" style="shape=partialRectangle;html=1;whiteSpace=wrap;connectable=0;strokeColor=inherit;overflow=hidden;fillColor=none;top=0;left=0;bottom=0;right=0;pointerEvents=1;" vertex="1" parent="K4n_j_3E0sE-HWsx0Ezl-246">
          <mxGeometry x="190" width="60" height="30" as="geometry">
            <mxRectangle width="60" height="30" as="alternateBounds" />
          </mxGeometry>
        </mxCell>
        <mxCell id="K4n_j_3E0sE-HWsx0Ezl-251" value="07:30" style="shape=partialRectangle;html=1;whiteSpace=wrap;connectable=0;strokeColor=inherit;overflow=hidden;fillColor=none;top=0;left=0;bottom=0;right=0;pointerEvents=1;" vertex="1" parent="K4n_j_3E0sE-HWsx0Ezl-246">
          <mxGeometry x="250" width="88" height="30" as="geometry">
            <mxRectangle width="88" height="30" as="alternateBounds" />
          </mxGeometry>
        </mxCell>
        <mxCell id="K4n_j_3E0sE-HWsx0Ezl-252" value="14:30" style="shape=partialRectangle;html=1;whiteSpace=wrap;connectable=0;strokeColor=inherit;overflow=hidden;fillColor=none;top=0;left=0;bottom=0;right=0;pointerEvents=1;" vertex="1" parent="K4n_j_3E0sE-HWsx0Ezl-246">
          <mxGeometry x="338" width="93" height="30" as="geometry">
            <mxRectangle width="93" height="30" as="alternateBounds" />
          </mxGeometry>
        </mxCell>
        <mxCell id="K4n_j_3E0sE-HWsx0Ezl-253" value="B-1" style="shape=partialRectangle;html=1;whiteSpace=wrap;connectable=0;strokeColor=inherit;overflow=hidden;fillColor=none;top=0;left=0;bottom=0;right=0;pointerEvents=1;" vertex="1" parent="K4n_j_3E0sE-HWsx0Ezl-246">
          <mxGeometry x="431" width="80" height="30" as="geometry">
            <mxRectangle width="80" height="30" as="alternateBounds" />
          </mxGeometry>
        </mxCell>
        <mxCell id="K4n_j_3E0sE-HWsx0Ezl-254" value="" style="shape=partialRectangle;html=1;whiteSpace=wrap;connectable=0;strokeColor=inherit;overflow=hidden;fillColor=none;top=0;left=0;bottom=0;right=0;pointerEvents=1;" vertex="1" parent="K4n_j_3E0sE-HWsx0Ezl-246">
          <mxGeometry x="511" width="110" height="30" as="geometry">
            <mxRectangle width="110" height="30" as="alternateBounds" />
          </mxGeometry>
        </mxCell>
        <mxCell id="K4n_j_3E0sE-HWsx0Ezl-255" value="Car Parking List" style="text;html=1;align=center;verticalAlign=middle;whiteSpace=wrap;rounded=0;fontStyle=1;fontSize=16;" vertex="1" parent="1">
          <mxGeometry x="-774" y="-850" width="170" height="30" as="geometry" />
        </mxCell>
        <mxCell id="K4n_j_3E0sE-HWsx0Ezl-256" value="Add New Car" style="rounded=1;whiteSpace=wrap;html=1;fillColor=#55AB51;fontColor=#FFFFFF;" vertex="1" parent="1">
          <mxGeometry x="-240" y="-860" width="80" height="30" as="geometry" />
        </mxCell>
        <mxCell id="K4n_j_3E0sE-HWsx0Ezl-257" value="&lt;font style=&quot;font-size: 8px;&quot;&gt;View&lt;/font&gt;" style="rounded=1;whiteSpace=wrap;html=1;fillColor=#28FFF7;fontColor=#4D4D4D;" vertex="1" parent="1">
          <mxGeometry x="-245" y="-773" width="30" height="20" as="geometry" />
        </mxCell>
        <mxCell id="K4n_j_3E0sE-HWsx0Ezl-258" value="&lt;font style=&quot;font-size: 8px;&quot;&gt;Edit&lt;/font&gt;" style="rounded=1;whiteSpace=wrap;html=1;fillColor=#FFFF66;fontColor=#000000;" vertex="1" parent="1">
          <mxGeometry x="-211" y="-773" width="30" height="20" as="geometry" />
        </mxCell>
        <mxCell id="K4n_j_3E0sE-HWsx0Ezl-259" value="&lt;font style=&quot;font-size: 8px;&quot;&gt;Delete&lt;/font&gt;" style="rounded=1;whiteSpace=wrap;html=1;fillColor=#CC0000;fontColor=#FFFFFF;" vertex="1" parent="1">
          <mxGeometry x="-177" y="-773" width="30" height="20" as="geometry" />
        </mxCell>
        <mxCell id="K4n_j_3E0sE-HWsx0Ezl-260" value="&lt;font style=&quot;font-size: 8px;&quot;&gt;View&lt;/font&gt;" style="rounded=1;whiteSpace=wrap;html=1;fillColor=#28FFF7;fontColor=#4D4D4D;" vertex="1" parent="1">
          <mxGeometry x="-245" y="-745" width="30" height="20" as="geometry" />
        </mxCell>
        <mxCell id="K4n_j_3E0sE-HWsx0Ezl-261" value="&lt;font style=&quot;font-size: 8px;&quot;&gt;Edit&lt;/font&gt;" style="rounded=1;whiteSpace=wrap;html=1;fillColor=#FFFF66;fontColor=#000000;" vertex="1" parent="1">
          <mxGeometry x="-211" y="-745" width="30" height="20" as="geometry" />
        </mxCell>
        <mxCell id="K4n_j_3E0sE-HWsx0Ezl-262" value="&lt;font style=&quot;font-size: 8px;&quot;&gt;Delete&lt;/font&gt;" style="rounded=1;whiteSpace=wrap;html=1;fillColor=#CC0000;fontColor=#FFFFFF;" vertex="1" parent="1">
          <mxGeometry x="-177" y="-745" width="30" height="20" as="geometry" />
        </mxCell>
        <mxCell id="K4n_j_3E0sE-HWsx0Ezl-263" value="" style="rounded=0;whiteSpace=wrap;html=1;" vertex="1" parent="1">
          <mxGeometry x="83" y="-951" width="718" height="400" as="geometry" />
        </mxCell>
        <mxCell id="K4n_j_3E0sE-HWsx0Ezl-264" value="&lt;h3&gt;&lt;font style=&quot;color: rgb(255, 255, 255);&quot;&gt;&amp;nbsp; &amp;nbsp; &amp;nbsp; &lt;font style=&quot;&quot;&gt;&lt;span style=&quot;font-size: 20px;&quot;&gt;Car Parking System&amp;nbsp; &amp;nbsp; &amp;nbsp; &amp;nbsp; &amp;nbsp; &amp;nbsp; &amp;nbsp; &amp;nbsp; &amp;nbsp; &amp;nbsp; &amp;nbsp; &amp;nbsp; &amp;nbsp; &amp;nbsp; &amp;nbsp; &amp;nbsp; &amp;nbsp;&lt;/span&gt;&lt;span style=&quot;font-weight: normal;&quot;&gt;&lt;font style=&quot;font-size: 18px;&quot;&gt;Home&amp;nbsp; &amp;nbsp;Add Car&lt;/font&gt;&lt;/span&gt;&lt;/font&gt;&lt;/font&gt;&lt;/h3&gt;" style="rounded=0;whiteSpace=wrap;html=1;align=left;fillColor=#3333FF;strokeColor=#3333FF;" vertex="1" parent="1">
          <mxGeometry x="110" y="-930" width="660" height="50" as="geometry" />
        </mxCell>
        <mxCell id="K4n_j_3E0sE-HWsx0Ezl-265" value="Add New Car" style="text;html=1;align=center;verticalAlign=middle;whiteSpace=wrap;rounded=0;fontStyle=1;fontSize=16;" vertex="1" parent="1">
          <mxGeometry x="102" y="-869" width="170" height="30" as="geometry" />
        </mxCell>
        <mxCell id="K4n_j_3E0sE-HWsx0Ezl-266" value="Car Brand" style="text;html=1;align=center;verticalAlign=middle;whiteSpace=wrap;rounded=0;fontStyle=0;fontSize=12;" vertex="1" parent="1">
          <mxGeometry x="80" y="-844" width="170" height="30" as="geometry" />
        </mxCell>
        <mxCell id="K4n_j_3E0sE-HWsx0Ezl-267" value="" style="rounded=1;whiteSpace=wrap;html=1;" vertex="1" parent="1">
          <mxGeometry x="130" y="-821" width="620" height="19" as="geometry" />
        </mxCell>
        <mxCell id="K4n_j_3E0sE-HWsx0Ezl-268" value="Car Number" style="text;html=1;align=center;verticalAlign=middle;whiteSpace=wrap;rounded=0;fontStyle=0;fontSize=12;" vertex="1" parent="1">
          <mxGeometry x="82" y="-802" width="170" height="30" as="geometry" />
        </mxCell>
        <mxCell id="K4n_j_3E0sE-HWsx0Ezl-269" value="Car Type" style="text;html=1;align=center;verticalAlign=middle;whiteSpace=wrap;rounded=0;fontStyle=0;fontSize=12;" vertex="1" parent="1">
          <mxGeometry x="75" y="-758" width="170" height="30" as="geometry" />
        </mxCell>
        <mxCell id="K4n_j_3E0sE-HWsx0Ezl-270" value="" style="rounded=1;whiteSpace=wrap;html=1;" vertex="1" parent="1">
          <mxGeometry x="129" y="-778" width="620" height="21" as="geometry" />
        </mxCell>
        <mxCell id="K4n_j_3E0sE-HWsx0Ezl-271" value="" style="rounded=1;whiteSpace=wrap;html=1;" vertex="1" parent="1">
          <mxGeometry x="127" y="-734" width="620" height="21" as="geometry" />
        </mxCell>
        <mxCell id="K4n_j_3E0sE-HWsx0Ezl-272" value="Incoming Time" style="text;html=1;align=center;verticalAlign=middle;whiteSpace=wrap;rounded=0;fontStyle=0;fontSize=12;" vertex="1" parent="1">
          <mxGeometry x="89" y="-713" width="170" height="30" as="geometry" />
        </mxCell>
        <mxCell id="K4n_j_3E0sE-HWsx0Ezl-273" value="" style="rounded=1;whiteSpace=wrap;html=1;" vertex="1" parent="1">
          <mxGeometry x="125" y="-690" width="620" height="21" as="geometry" />
        </mxCell>
        <mxCell id="K4n_j_3E0sE-HWsx0Ezl-274" value="Outgoing Time" style="text;html=1;align=center;verticalAlign=middle;whiteSpace=wrap;rounded=0;fontStyle=0;fontSize=12;" vertex="1" parent="1">
          <mxGeometry x="87" y="-670" width="170" height="30" as="geometry" />
        </mxCell>
        <mxCell id="K4n_j_3E0sE-HWsx0Ezl-275" value="" style="rounded=1;whiteSpace=wrap;html=1;" vertex="1" parent="1">
          <mxGeometry x="124" y="-646" width="620" height="21" as="geometry" />
        </mxCell>
        <mxCell id="K4n_j_3E0sE-HWsx0Ezl-276" value="" style="rounded=1;whiteSpace=wrap;html=1;" vertex="1" parent="1">
          <mxGeometry x="124" y="-603" width="620" height="21" as="geometry" />
        </mxCell>
        <mxCell id="K4n_j_3E0sE-HWsx0Ezl-277" value="Parking Slot" style="text;html=1;align=center;verticalAlign=middle;whiteSpace=wrap;rounded=0;fontStyle=0;fontSize=12;" vertex="1" parent="1">
          <mxGeometry x="79" y="-628" width="170" height="30" as="geometry" />
        </mxCell>
        <mxCell id="K4n_j_3E0sE-HWsx0Ezl-278" value="Save" style="rounded=1;whiteSpace=wrap;html=1;fillColor=#3333FF;fontColor=#FFFFFF;" vertex="1" parent="1">
          <mxGeometry x="131" y="-571" width="40" height="13" as="geometry" />
        </mxCell>
        <mxCell id="K4n_j_3E0sE-HWsx0Ezl-279" value="" style="rounded=0;whiteSpace=wrap;html=1;" vertex="1" parent="1">
          <mxGeometry x="-819.5" y="20" width="718" height="400" as="geometry" />
        </mxCell>
        <mxCell id="K4n_j_3E0sE-HWsx0Ezl-280" value="&lt;h3&gt;&lt;font style=&quot;color: rgb(255, 255, 255);&quot;&gt;&amp;nbsp; &amp;nbsp; &amp;nbsp; &lt;font style=&quot;&quot;&gt;&lt;span style=&quot;font-size: 20px;&quot;&gt;Car Parking System&amp;nbsp; &amp;nbsp; &amp;nbsp; &amp;nbsp; &amp;nbsp; &amp;nbsp; &amp;nbsp; &amp;nbsp; &amp;nbsp; &amp;nbsp; &amp;nbsp; &amp;nbsp; &amp;nbsp; &amp;nbsp; &amp;nbsp; &amp;nbsp; &amp;nbsp;&lt;/span&gt;&lt;span style=&quot;font-weight: normal;&quot;&gt;&lt;font style=&quot;font-size: 18px;&quot;&gt;Home&amp;nbsp; &amp;nbsp;Add Car&lt;/font&gt;&lt;/span&gt;&lt;/font&gt;&lt;/font&gt;&lt;/h3&gt;" style="rounded=0;whiteSpace=wrap;html=1;align=left;fillColor=#3333FF;strokeColor=#3333FF;" vertex="1" parent="1">
          <mxGeometry x="-792.5" y="41" width="660" height="50" as="geometry" />
        </mxCell>
        <mxCell id="K4n_j_3E0sE-HWsx0Ezl-281" value="Edit Car Details" style="text;html=1;align=center;verticalAlign=middle;whiteSpace=wrap;rounded=0;fontStyle=1;fontSize=16;" vertex="1" parent="1">
          <mxGeometry x="-790.5" y="99" width="170" height="30" as="geometry" />
        </mxCell>
        <mxCell id="K4n_j_3E0sE-HWsx0Ezl-282" value="Car Brand" style="text;html=1;align=center;verticalAlign=middle;whiteSpace=wrap;rounded=0;fontStyle=0;fontSize=12;" vertex="1" parent="1">
          <mxGeometry x="-822.5" y="121" width="170" height="30" as="geometry" />
        </mxCell>
        <mxCell id="K4n_j_3E0sE-HWsx0Ezl-283" value="&lt;font style=&quot;font-size: 10px;&quot;&gt;&amp;nbsp; &amp;nbsp;Audi&lt;/font&gt;" style="rounded=1;whiteSpace=wrap;html=1;align=left;" vertex="1" parent="1">
          <mxGeometry x="-774.5" y="144" width="620" height="19" as="geometry" />
        </mxCell>
        <mxCell id="K4n_j_3E0sE-HWsx0Ezl-284" value="Car Number" style="text;html=1;align=center;verticalAlign=middle;whiteSpace=wrap;rounded=0;fontStyle=0;fontSize=12;" vertex="1" parent="1">
          <mxGeometry x="-820.5" y="163" width="170" height="30" as="geometry" />
        </mxCell>
        <mxCell id="K4n_j_3E0sE-HWsx0Ezl-285" value="Car Type" style="text;html=1;align=center;verticalAlign=middle;whiteSpace=wrap;rounded=0;fontStyle=0;fontSize=12;" vertex="1" parent="1">
          <mxGeometry x="-827.5" y="207" width="170" height="30" as="geometry" />
        </mxCell>
        <mxCell id="K4n_j_3E0sE-HWsx0Ezl-286" value="&lt;span style=&quot;font-size: 10px;&quot;&gt;&amp;nbsp; &amp;nbsp;KA-04 AR-1551&lt;/span&gt;" style="rounded=1;whiteSpace=wrap;html=1;align=left;" vertex="1" parent="1">
          <mxGeometry x="-773.5" y="187" width="620" height="21" as="geometry" />
        </mxCell>
        <mxCell id="K4n_j_3E0sE-HWsx0Ezl-287" value="&lt;span style=&quot;font-size: 10px;&quot;&gt;&amp;nbsp; &amp;nbsp;SUV&lt;/span&gt;" style="rounded=1;whiteSpace=wrap;html=1;align=left;" vertex="1" parent="1">
          <mxGeometry x="-775.5" y="231" width="620" height="21" as="geometry" />
        </mxCell>
        <mxCell id="K4n_j_3E0sE-HWsx0Ezl-288" value="Incoming Time" style="text;html=1;align=center;verticalAlign=middle;whiteSpace=wrap;rounded=0;fontStyle=0;fontSize=12;" vertex="1" parent="1">
          <mxGeometry x="-813.5" y="252" width="170" height="30" as="geometry" />
        </mxCell>
        <mxCell id="K4n_j_3E0sE-HWsx0Ezl-289" value="&lt;span style=&quot;font-size: 10px;&quot;&gt;&amp;nbsp; &amp;nbsp;10:30&lt;/span&gt;" style="rounded=1;whiteSpace=wrap;html=1;align=left;" vertex="1" parent="1">
          <mxGeometry x="-777.5" y="275" width="620" height="21" as="geometry" />
        </mxCell>
        <mxCell id="K4n_j_3E0sE-HWsx0Ezl-290" value="Outgoing Time" style="text;html=1;align=center;verticalAlign=middle;whiteSpace=wrap;rounded=0;fontStyle=0;fontSize=12;" vertex="1" parent="1">
          <mxGeometry x="-815.5" y="295" width="170" height="30" as="geometry" />
        </mxCell>
        <mxCell id="K4n_j_3E0sE-HWsx0Ezl-291" value="&lt;span style=&quot;font-size: 10px;&quot;&gt;&amp;nbsp; &amp;nbsp;15:30&lt;/span&gt;" style="rounded=1;whiteSpace=wrap;html=1;align=left;" vertex="1" parent="1">
          <mxGeometry x="-778.5" y="319" width="620" height="21" as="geometry" />
        </mxCell>
        <mxCell id="K4n_j_3E0sE-HWsx0Ezl-292" value="&lt;span style=&quot;font-size: 10px;&quot;&gt;&amp;nbsp; &amp;nbsp;A-1&lt;/span&gt;" style="rounded=1;whiteSpace=wrap;html=1;align=left;" vertex="1" parent="1">
          <mxGeometry x="-778.5" y="362" width="620" height="21" as="geometry" />
        </mxCell>
        <mxCell id="K4n_j_3E0sE-HWsx0Ezl-293" value="Parking Slot" style="text;html=1;align=center;verticalAlign=middle;whiteSpace=wrap;rounded=0;fontStyle=0;fontSize=12;" vertex="1" parent="1">
          <mxGeometry x="-823.5" y="337" width="170" height="30" as="geometry" />
        </mxCell>
        <mxCell id="K4n_j_3E0sE-HWsx0Ezl-294" value="Update" style="rounded=1;whiteSpace=wrap;html=1;fillColor=#3333FF;fontColor=#FFFFFF;" vertex="1" parent="1">
          <mxGeometry x="-771.5" y="390" width="52" height="23" as="geometry" />
        </mxCell>
        <mxCell id="K4n_j_3E0sE-HWsx0Ezl-295" value="" style="rounded=0;whiteSpace=wrap;html=1;" vertex="1" parent="1">
          <mxGeometry x="69.5" y="20" width="718" height="400" as="geometry" />
        </mxCell>
        <mxCell id="K4n_j_3E0sE-HWsx0Ezl-296" value="&lt;h3&gt;&lt;font style=&quot;color: rgb(255, 255, 255);&quot;&gt;&amp;nbsp; &amp;nbsp; &amp;nbsp; &lt;font style=&quot;&quot;&gt;&lt;span style=&quot;font-size: 20px;&quot;&gt;Car Parking System&amp;nbsp; &amp;nbsp; &amp;nbsp; &amp;nbsp; &amp;nbsp; &amp;nbsp; &amp;nbsp; &amp;nbsp; &amp;nbsp; &amp;nbsp; &amp;nbsp; &amp;nbsp; &amp;nbsp; &amp;nbsp; &amp;nbsp; &amp;nbsp; &amp;nbsp;&lt;/span&gt;&lt;span style=&quot;font-weight: normal;&quot;&gt;&lt;font style=&quot;font-size: 18px;&quot;&gt;Home&amp;nbsp; &amp;nbsp;Add Car&lt;/font&gt;&lt;/span&gt;&lt;/font&gt;&lt;/font&gt;&lt;/h3&gt;" style="rounded=0;whiteSpace=wrap;html=1;align=left;fillColor=#3333FF;strokeColor=#3333FF;" vertex="1" parent="1">
          <mxGeometry x="96.5" y="41" width="660" height="50" as="geometry" />
        </mxCell>
        <mxCell id="K4n_j_3E0sE-HWsx0Ezl-297" value="Car Details" style="text;html=1;align=center;verticalAlign=middle;whiteSpace=wrap;rounded=0;fontStyle=1;fontSize=16;" vertex="1" parent="1">
          <mxGeometry x="80.5" y="99" width="170" height="30" as="geometry" />
        </mxCell>
        <mxCell id="K4n_j_3E0sE-HWsx0Ezl-298" value="" style="rounded=0;whiteSpace=wrap;html=1;perimeterSpacing=0;glass=0;shadow=1;" vertex="1" parent="1">
          <mxGeometry x="114.5" y="133" width="608" height="247" as="geometry" />
        </mxCell>
        <mxCell id="K4n_j_3E0sE-HWsx0Ezl-299" value="&lt;h5 style=&quot;box-sizing: border-box; margin-top: 0px; margin-bottom: var(--bs-card-title-spacer-y); font-weight: 500; line-height: 1.2; color: rgb(33, 37, 41); font-size: 1.25rem; font-family: system-ui, -apple-system, &amp;quot;Segoe UI&amp;quot;, Roboto, &amp;quot;Helvetica Neue&amp;quot;, &amp;quot;Noto Sans&amp;quot;, &amp;quot;Liberation Sans&amp;quot;, Arial, sans-serif, &amp;quot;Apple Color Emoji&amp;quot;, &amp;quot;Segoe UI Emoji&amp;quot;, &amp;quot;Segoe UI Symbol&amp;quot;, &amp;quot;Noto Color Emoji&amp;quot;; text-align: start; background-color: rgb(255, 255, 255);&quot; class=&quot;card-title&quot;&gt;Audi Q6&amp;nbsp;(SUV)&lt;/h5&gt;&lt;p style=&quot;box-sizing: border-box; margin-top: 0px; margin-bottom: 1rem; color: rgb(33, 37, 41); font-family: system-ui, -apple-system, &amp;quot;Segoe UI&amp;quot;, Roboto, &amp;quot;Helvetica Neue&amp;quot;, &amp;quot;Noto Sans&amp;quot;, &amp;quot;Liberation Sans&amp;quot;, Arial, sans-serif, &amp;quot;Apple Color Emoji&amp;quot;, &amp;quot;Segoe UI Emoji&amp;quot;, &amp;quot;Segoe UI Symbol&amp;quot;, &amp;quot;Noto Color Emoji&amp;quot;; font-weight: 400; text-align: start; background-color: rgb(255, 255, 255);&quot;&gt;&lt;span style=&quot;box-sizing: border-box; font-weight: bolder;&quot;&gt;Car Number:&lt;/span&gt;&amp;nbsp;AR-1551&lt;/p&gt;&lt;p style=&quot;box-sizing: border-box; margin-top: 0px; margin-bottom: 1rem; color: rgb(33, 37, 41); font-family: system-ui, -apple-system, &amp;quot;Segoe UI&amp;quot;, Roboto, &amp;quot;Helvetica Neue&amp;quot;, &amp;quot;Noto Sans&amp;quot;, &amp;quot;Liberation Sans&amp;quot;, Arial, sans-serif, &amp;quot;Apple Color Emoji&amp;quot;, &amp;quot;Segoe UI Emoji&amp;quot;, &amp;quot;Segoe UI Symbol&amp;quot;, &amp;quot;Noto Color Emoji&amp;quot;; font-weight: 400; text-align: start; background-color: rgb(255, 255, 255);&quot;&gt;&lt;span style=&quot;box-sizing: border-box; font-weight: bolder;&quot;&gt;Car Type:&lt;/span&gt;&amp;nbsp;SUV&lt;/p&gt;&lt;p style=&quot;box-sizing: border-box; margin-top: 0px; margin-bottom: 1rem; color: rgb(33, 37, 41); font-family: system-ui, -apple-system, &amp;quot;Segoe UI&amp;quot;, Roboto, &amp;quot;Helvetica Neue&amp;quot;, &amp;quot;Noto Sans&amp;quot;, &amp;quot;Liberation Sans&amp;quot;, Arial, sans-serif, &amp;quot;Apple Color Emoji&amp;quot;, &amp;quot;Segoe UI Emoji&amp;quot;, &amp;quot;Segoe UI Symbol&amp;quot;, &amp;quot;Noto Color Emoji&amp;quot;; font-weight: 400; text-align: start; background-color: rgb(255, 255, 255);&quot;&gt;&lt;span style=&quot;box-sizing: border-box; font-weight: bolder;&quot;&gt;Incoming Time:&lt;/span&gt;&amp;nbsp;09:10&lt;/p&gt;&lt;p style=&quot;box-sizing: border-box; margin-top: 0px; margin-bottom: 1rem; color: rgb(33, 37, 41); font-family: system-ui, -apple-system, &amp;quot;Segoe UI&amp;quot;, Roboto, &amp;quot;Helvetica Neue&amp;quot;, &amp;quot;Noto Sans&amp;quot;, &amp;quot;Liberation Sans&amp;quot;, Arial, sans-serif, &amp;quot;Apple Color Emoji&amp;quot;, &amp;quot;Segoe UI Emoji&amp;quot;, &amp;quot;Segoe UI Symbol&amp;quot;, &amp;quot;Noto Color Emoji&amp;quot;; font-weight: 400; text-align: start; background-color: rgb(255, 255, 255);&quot;&gt;&lt;span style=&quot;box-sizing: border-box; font-weight: bolder;&quot;&gt;Outgoing Time:&lt;/span&gt;&amp;nbsp;17:06&lt;/p&gt;&lt;p style=&quot;box-sizing: border-box; margin-top: 0px; margin-bottom: 1rem; color: rgb(33, 37, 41); font-family: system-ui, -apple-system, &amp;quot;Segoe UI&amp;quot;, Roboto, &amp;quot;Helvetica Neue&amp;quot;, &amp;quot;Noto Sans&amp;quot;, &amp;quot;Liberation Sans&amp;quot;, Arial, sans-serif, &amp;quot;Apple Color Emoji&amp;quot;, &amp;quot;Segoe UI Emoji&amp;quot;, &amp;quot;Segoe UI Symbol&amp;quot;, &amp;quot;Noto Color Emoji&amp;quot;; font-weight: 400; text-align: start; background-color: rgb(255, 255, 255);&quot;&gt;&lt;span style=&quot;box-sizing: border-box; font-weight: bolder;&quot;&gt;Parking Slot:&lt;/span&gt;&amp;nbsp;A-2&lt;/p&gt;" style="text;html=1;align=center;verticalAlign=middle;whiteSpace=wrap;rounded=0;fontStyle=1;fontSize=16;" vertex="1" parent="1">
          <mxGeometry x="139.5" y="230" width="170" height="30" as="geometry" />
        </mxCell>
        <mxCell id="K4n_j_3E0sE-HWsx0Ezl-300" value="Back to List" style="rounded=1;whiteSpace=wrap;html=1;fillColor=#3333FF;fontColor=#FFFFFF;" vertex="1" parent="1">
          <mxGeometry x="151.5" y="340.5" width="79" height="23" as="geometry" />
        </mxCell>
        <mxCell id="K4n_j_3E0sE-HWsx0Ezl-301" value="" style="rounded=0;whiteSpace=wrap;html=1;" vertex="1" parent="1">
          <mxGeometry x="-370" y="-460" width="718" height="400" as="geometry" />
        </mxCell>
        <mxCell id="K4n_j_3E0sE-HWsx0Ezl-302" value="&lt;h3&gt;&lt;font style=&quot;color: rgb(255, 255, 255);&quot;&gt;&amp;nbsp; &amp;nbsp; &amp;nbsp; &lt;font style=&quot;&quot;&gt;&lt;span style=&quot;font-size: 20px;&quot;&gt;Car Parking System&amp;nbsp; &amp;nbsp; &amp;nbsp; &amp;nbsp; &amp;nbsp; &amp;nbsp; &amp;nbsp; &amp;nbsp; &amp;nbsp; &amp;nbsp; &amp;nbsp; &amp;nbsp; &amp;nbsp; &amp;nbsp; &amp;nbsp; &amp;nbsp; &amp;nbsp;&lt;/span&gt;&lt;span style=&quot;font-weight: normal;&quot;&gt;&lt;font style=&quot;font-size: 18px;&quot;&gt;Home&amp;nbsp; &amp;nbsp;Add Car&lt;/font&gt;&lt;/span&gt;&lt;/font&gt;&lt;/font&gt;&lt;/h3&gt;" style="rounded=0;whiteSpace=wrap;html=1;align=left;fillColor=#3333FF;strokeColor=#3333FF;" vertex="1" parent="1">
          <mxGeometry x="-340" y="-440" width="660" height="50" as="geometry" />
        </mxCell>
        <mxCell id="K4n_j_3E0sE-HWsx0Ezl-303" value="" style="shape=table;startSize=0;container=1;collapsible=0;childLayout=tableLayout;strokeColor=#CCCCCC;" vertex="1" parent="1">
          <mxGeometry x="-321" y="-326" width="621" height="96" as="geometry" />
        </mxCell>
        <mxCell id="K4n_j_3E0sE-HWsx0Ezl-304" value="" style="shape=tableRow;horizontal=0;startSize=0;swimlaneHead=0;swimlaneBody=0;strokeColor=inherit;top=0;left=0;bottom=0;right=0;collapsible=0;dropTarget=0;fillColor=none;points=[[0,0.5],[1,0.5]];portConstraint=eastwest;" vertex="1" parent="K4n_j_3E0sE-HWsx0Ezl-303">
          <mxGeometry width="621" height="40" as="geometry" />
        </mxCell>
        <mxCell id="K4n_j_3E0sE-HWsx0Ezl-305" value="#" style="shape=partialRectangle;html=1;whiteSpace=wrap;connectable=0;strokeColor=inherit;overflow=hidden;fillColor=#000000;top=0;left=0;bottom=0;right=0;pointerEvents=1;fontStyle=1;fontColor=#FFFFFF;fontSize=12;" vertex="1" parent="K4n_j_3E0sE-HWsx0Ezl-304">
          <mxGeometry width="30" height="40" as="geometry">
            <mxRectangle width="30" height="40" as="alternateBounds" />
          </mxGeometry>
        </mxCell>
        <mxCell id="K4n_j_3E0sE-HWsx0Ezl-306" value="Car Brand" style="shape=partialRectangle;html=1;whiteSpace=wrap;connectable=0;strokeColor=inherit;overflow=hidden;fillColor=#000000;top=0;left=0;bottom=0;right=0;pointerEvents=1;fontStyle=1;fontColor=#FFFFFF;fontSize=12;" vertex="1" parent="K4n_j_3E0sE-HWsx0Ezl-304">
          <mxGeometry x="30" width="70" height="40" as="geometry">
            <mxRectangle width="70" height="40" as="alternateBounds" />
          </mxGeometry>
        </mxCell>
        <mxCell id="K4n_j_3E0sE-HWsx0Ezl-307" value="Car Number" style="shape=partialRectangle;html=1;whiteSpace=wrap;connectable=0;strokeColor=inherit;overflow=hidden;fillColor=#000000;top=0;left=0;bottom=0;right=0;pointerEvents=1;fontStyle=1;fontColor=#FFFFFF;fontSize=12;" vertex="1" parent="K4n_j_3E0sE-HWsx0Ezl-304">
          <mxGeometry x="100" width="90" height="40" as="geometry">
            <mxRectangle width="90" height="40" as="alternateBounds" />
          </mxGeometry>
        </mxCell>
        <mxCell id="K4n_j_3E0sE-HWsx0Ezl-308" value="Car Type" style="shape=partialRectangle;html=1;whiteSpace=wrap;connectable=0;strokeColor=inherit;overflow=hidden;fillColor=#000000;top=0;left=0;bottom=0;right=0;pointerEvents=1;fontStyle=1;fontColor=#FFFFFF;fontSize=12;" vertex="1" parent="K4n_j_3E0sE-HWsx0Ezl-304">
          <mxGeometry x="190" width="60" height="40" as="geometry">
            <mxRectangle width="60" height="40" as="alternateBounds" />
          </mxGeometry>
        </mxCell>
        <mxCell id="K4n_j_3E0sE-HWsx0Ezl-309" value="Incoming Time" style="shape=partialRectangle;html=1;whiteSpace=wrap;connectable=0;strokeColor=inherit;overflow=hidden;fillColor=#000000;top=0;left=0;bottom=0;right=0;pointerEvents=1;fontStyle=1;fontColor=#FFFFFF;fontSize=12;" vertex="1" parent="K4n_j_3E0sE-HWsx0Ezl-304">
          <mxGeometry x="250" width="88" height="40" as="geometry">
            <mxRectangle width="88" height="40" as="alternateBounds" />
          </mxGeometry>
        </mxCell>
        <mxCell id="K4n_j_3E0sE-HWsx0Ezl-310" value="Outgoing Time" style="shape=partialRectangle;html=1;whiteSpace=wrap;connectable=0;strokeColor=inherit;overflow=hidden;fillColor=#000000;top=0;left=0;bottom=0;right=0;pointerEvents=1;fontStyle=1;fontColor=#FFFFFF;fontSize=12;" vertex="1" parent="K4n_j_3E0sE-HWsx0Ezl-304">
          <mxGeometry x="338" width="93" height="40" as="geometry">
            <mxRectangle width="93" height="40" as="alternateBounds" />
          </mxGeometry>
        </mxCell>
        <mxCell id="K4n_j_3E0sE-HWsx0Ezl-311" value="Parking Slot" style="shape=partialRectangle;html=1;whiteSpace=wrap;connectable=0;strokeColor=inherit;overflow=hidden;fillColor=#000000;top=0;left=0;bottom=0;right=0;pointerEvents=1;fontStyle=1;fontColor=#FFFFFF;fontSize=12;" vertex="1" parent="K4n_j_3E0sE-HWsx0Ezl-304">
          <mxGeometry x="431" width="80" height="40" as="geometry">
            <mxRectangle width="80" height="40" as="alternateBounds" />
          </mxGeometry>
        </mxCell>
        <mxCell id="K4n_j_3E0sE-HWsx0Ezl-312" value="Action" style="shape=partialRectangle;html=1;whiteSpace=wrap;connectable=0;strokeColor=inherit;overflow=hidden;fillColor=#000000;top=0;left=0;bottom=0;right=0;pointerEvents=1;fontStyle=1;fontColor=#FFFFFF;fontSize=12;" vertex="1" parent="K4n_j_3E0sE-HWsx0Ezl-304">
          <mxGeometry x="511" width="110" height="40" as="geometry">
            <mxRectangle width="110" height="40" as="alternateBounds" />
          </mxGeometry>
        </mxCell>
        <mxCell id="K4n_j_3E0sE-HWsx0Ezl-313" value="" style="shape=tableRow;horizontal=0;startSize=0;swimlaneHead=0;swimlaneBody=0;strokeColor=inherit;top=0;left=0;bottom=0;right=0;collapsible=0;dropTarget=0;fillColor=none;points=[[0,0.5],[1,0.5]];portConstraint=eastwest;" vertex="1" parent="K4n_j_3E0sE-HWsx0Ezl-303">
          <mxGeometry y="40" width="621" height="26" as="geometry" />
        </mxCell>
        <mxCell id="K4n_j_3E0sE-HWsx0Ezl-314" value="1" style="shape=partialRectangle;html=1;whiteSpace=wrap;connectable=0;strokeColor=inherit;overflow=hidden;fillColor=none;top=0;left=0;bottom=0;right=0;pointerEvents=1;" vertex="1" parent="K4n_j_3E0sE-HWsx0Ezl-313">
          <mxGeometry width="30" height="26" as="geometry">
            <mxRectangle width="30" height="26" as="alternateBounds" />
          </mxGeometry>
        </mxCell>
        <mxCell id="K4n_j_3E0sE-HWsx0Ezl-315" value="Benz" style="shape=partialRectangle;html=1;whiteSpace=wrap;connectable=0;strokeColor=inherit;overflow=hidden;fillColor=none;top=0;left=0;bottom=0;right=0;pointerEvents=1;" vertex="1" parent="K4n_j_3E0sE-HWsx0Ezl-313">
          <mxGeometry x="30" width="70" height="26" as="geometry">
            <mxRectangle width="70" height="26" as="alternateBounds" />
          </mxGeometry>
        </mxCell>
        <mxCell id="K4n_j_3E0sE-HWsx0Ezl-316" value="KA-04 AR-1551" style="shape=partialRectangle;html=1;whiteSpace=wrap;connectable=0;strokeColor=inherit;overflow=hidden;fillColor=none;top=0;left=0;bottom=0;right=0;pointerEvents=1;" vertex="1" parent="K4n_j_3E0sE-HWsx0Ezl-313">
          <mxGeometry x="100" width="90" height="26" as="geometry">
            <mxRectangle width="90" height="26" as="alternateBounds" />
          </mxGeometry>
        </mxCell>
        <mxCell id="K4n_j_3E0sE-HWsx0Ezl-317" value="SUV" style="shape=partialRectangle;html=1;whiteSpace=wrap;connectable=0;strokeColor=inherit;overflow=hidden;fillColor=none;top=0;left=0;bottom=0;right=0;pointerEvents=1;" vertex="1" parent="K4n_j_3E0sE-HWsx0Ezl-313">
          <mxGeometry x="190" width="60" height="26" as="geometry">
            <mxRectangle width="60" height="26" as="alternateBounds" />
          </mxGeometry>
        </mxCell>
        <mxCell id="K4n_j_3E0sE-HWsx0Ezl-318" value="10:20" style="shape=partialRectangle;html=1;whiteSpace=wrap;connectable=0;strokeColor=inherit;overflow=hidden;fillColor=none;top=0;left=0;bottom=0;right=0;pointerEvents=1;" vertex="1" parent="K4n_j_3E0sE-HWsx0Ezl-313">
          <mxGeometry x="250" width="88" height="26" as="geometry">
            <mxRectangle width="88" height="26" as="alternateBounds" />
          </mxGeometry>
        </mxCell>
        <mxCell id="K4n_j_3E0sE-HWsx0Ezl-319" value="12:24" style="shape=partialRectangle;html=1;whiteSpace=wrap;connectable=0;strokeColor=inherit;overflow=hidden;fillColor=none;top=0;left=0;bottom=0;right=0;pointerEvents=1;" vertex="1" parent="K4n_j_3E0sE-HWsx0Ezl-313">
          <mxGeometry x="338" width="93" height="26" as="geometry">
            <mxRectangle width="93" height="26" as="alternateBounds" />
          </mxGeometry>
        </mxCell>
        <mxCell id="K4n_j_3E0sE-HWsx0Ezl-320" value="A-1" style="shape=partialRectangle;html=1;whiteSpace=wrap;connectable=0;strokeColor=inherit;overflow=hidden;fillColor=none;top=0;left=0;bottom=0;right=0;pointerEvents=1;" vertex="1" parent="K4n_j_3E0sE-HWsx0Ezl-313">
          <mxGeometry x="431" width="80" height="26" as="geometry">
            <mxRectangle width="80" height="26" as="alternateBounds" />
          </mxGeometry>
        </mxCell>
        <mxCell id="K4n_j_3E0sE-HWsx0Ezl-321" value="" style="shape=partialRectangle;html=1;whiteSpace=wrap;connectable=0;strokeColor=inherit;overflow=hidden;fillColor=none;top=0;left=0;bottom=0;right=0;pointerEvents=1;" vertex="1" parent="K4n_j_3E0sE-HWsx0Ezl-313">
          <mxGeometry x="511" width="110" height="26" as="geometry">
            <mxRectangle width="110" height="26" as="alternateBounds" />
          </mxGeometry>
        </mxCell>
        <mxCell id="K4n_j_3E0sE-HWsx0Ezl-322" value="" style="shape=tableRow;horizontal=0;startSize=0;swimlaneHead=0;swimlaneBody=0;strokeColor=inherit;top=0;left=0;bottom=0;right=0;collapsible=0;dropTarget=0;fillColor=none;points=[[0,0.5],[1,0.5]];portConstraint=eastwest;" vertex="1" parent="K4n_j_3E0sE-HWsx0Ezl-303">
          <mxGeometry y="66" width="621" height="30" as="geometry" />
        </mxCell>
        <mxCell id="K4n_j_3E0sE-HWsx0Ezl-323" value="2" style="shape=partialRectangle;html=1;whiteSpace=wrap;connectable=0;strokeColor=inherit;overflow=hidden;fillColor=none;top=0;left=0;bottom=0;right=0;pointerEvents=1;" vertex="1" parent="K4n_j_3E0sE-HWsx0Ezl-322">
          <mxGeometry width="30" height="30" as="geometry">
            <mxRectangle width="30" height="30" as="alternateBounds" />
          </mxGeometry>
        </mxCell>
        <mxCell id="K4n_j_3E0sE-HWsx0Ezl-324" value="Audi" style="shape=partialRectangle;html=1;whiteSpace=wrap;connectable=0;strokeColor=inherit;overflow=hidden;fillColor=none;top=0;left=0;bottom=0;right=0;pointerEvents=1;" vertex="1" parent="K4n_j_3E0sE-HWsx0Ezl-322">
          <mxGeometry x="30" width="70" height="30" as="geometry">
            <mxRectangle width="70" height="30" as="alternateBounds" />
          </mxGeometry>
        </mxCell>
        <mxCell id="K4n_j_3E0sE-HWsx0Ezl-325" value="KA-01 AJ-2001" style="shape=partialRectangle;html=1;whiteSpace=wrap;connectable=0;strokeColor=inherit;overflow=hidden;fillColor=none;top=0;left=0;bottom=0;right=0;pointerEvents=1;" vertex="1" parent="K4n_j_3E0sE-HWsx0Ezl-322">
          <mxGeometry x="100" width="90" height="30" as="geometry">
            <mxRectangle width="90" height="30" as="alternateBounds" />
          </mxGeometry>
        </mxCell>
        <mxCell id="K4n_j_3E0sE-HWsx0Ezl-326" value="XUV" style="shape=partialRectangle;html=1;whiteSpace=wrap;connectable=0;strokeColor=inherit;overflow=hidden;fillColor=none;top=0;left=0;bottom=0;right=0;pointerEvents=1;" vertex="1" parent="K4n_j_3E0sE-HWsx0Ezl-322">
          <mxGeometry x="190" width="60" height="30" as="geometry">
            <mxRectangle width="60" height="30" as="alternateBounds" />
          </mxGeometry>
        </mxCell>
        <mxCell id="K4n_j_3E0sE-HWsx0Ezl-327" value="07:30" style="shape=partialRectangle;html=1;whiteSpace=wrap;connectable=0;strokeColor=inherit;overflow=hidden;fillColor=none;top=0;left=0;bottom=0;right=0;pointerEvents=1;" vertex="1" parent="K4n_j_3E0sE-HWsx0Ezl-322">
          <mxGeometry x="250" width="88" height="30" as="geometry">
            <mxRectangle width="88" height="30" as="alternateBounds" />
          </mxGeometry>
        </mxCell>
        <mxCell id="K4n_j_3E0sE-HWsx0Ezl-328" value="14:30" style="shape=partialRectangle;html=1;whiteSpace=wrap;connectable=0;strokeColor=inherit;overflow=hidden;fillColor=none;top=0;left=0;bottom=0;right=0;pointerEvents=1;" vertex="1" parent="K4n_j_3E0sE-HWsx0Ezl-322">
          <mxGeometry x="338" width="93" height="30" as="geometry">
            <mxRectangle width="93" height="30" as="alternateBounds" />
          </mxGeometry>
        </mxCell>
        <mxCell id="K4n_j_3E0sE-HWsx0Ezl-329" value="B-1" style="shape=partialRectangle;html=1;whiteSpace=wrap;connectable=0;strokeColor=inherit;overflow=hidden;fillColor=none;top=0;left=0;bottom=0;right=0;pointerEvents=1;" vertex="1" parent="K4n_j_3E0sE-HWsx0Ezl-322">
          <mxGeometry x="431" width="80" height="30" as="geometry">
            <mxRectangle width="80" height="30" as="alternateBounds" />
          </mxGeometry>
        </mxCell>
        <mxCell id="K4n_j_3E0sE-HWsx0Ezl-330" value="" style="shape=partialRectangle;html=1;whiteSpace=wrap;connectable=0;strokeColor=inherit;overflow=hidden;fillColor=none;top=0;left=0;bottom=0;right=0;pointerEvents=1;" vertex="1" parent="K4n_j_3E0sE-HWsx0Ezl-322">
          <mxGeometry x="511" width="110" height="30" as="geometry">
            <mxRectangle width="110" height="30" as="alternateBounds" />
          </mxGeometry>
        </mxCell>
        <mxCell id="K4n_j_3E0sE-HWsx0Ezl-331" value="Car Parking List" style="text;html=1;align=center;verticalAlign=middle;whiteSpace=wrap;rounded=0;fontStyle=1;fontSize=16;" vertex="1" parent="1">
          <mxGeometry x="-334" y="-360" width="170" height="30" as="geometry" />
        </mxCell>
        <mxCell id="K4n_j_3E0sE-HWsx0Ezl-332" value="Add New Car" style="rounded=1;whiteSpace=wrap;html=1;fillColor=#55AB51;fontColor=#FFFFFF;" vertex="1" parent="1">
          <mxGeometry x="200" y="-370" width="80" height="30" as="geometry" />
        </mxCell>
        <mxCell id="K4n_j_3E0sE-HWsx0Ezl-333" value="&lt;font style=&quot;font-size: 8px;&quot;&gt;View&lt;/font&gt;" style="rounded=1;whiteSpace=wrap;html=1;fillColor=#28FFF7;fontColor=#4D4D4D;" vertex="1" parent="1">
          <mxGeometry x="195" y="-283" width="30" height="20" as="geometry" />
        </mxCell>
        <mxCell id="K4n_j_3E0sE-HWsx0Ezl-334" value="&lt;font style=&quot;font-size: 8px;&quot;&gt;Edit&lt;/font&gt;" style="rounded=1;whiteSpace=wrap;html=1;fillColor=#FFFF66;fontColor=#000000;" vertex="1" parent="1">
          <mxGeometry x="229" y="-283" width="30" height="20" as="geometry" />
        </mxCell>
        <mxCell id="K4n_j_3E0sE-HWsx0Ezl-335" value="&lt;font style=&quot;font-size: 8px;&quot;&gt;Delete&lt;/font&gt;" style="rounded=1;whiteSpace=wrap;html=1;fillColor=#CC0000;fontColor=#FFFFFF;" vertex="1" parent="1">
          <mxGeometry x="263" y="-283" width="30" height="20" as="geometry" />
        </mxCell>
        <mxCell id="K4n_j_3E0sE-HWsx0Ezl-336" value="&lt;font style=&quot;font-size: 8px;&quot;&gt;View&lt;/font&gt;" style="rounded=1;whiteSpace=wrap;html=1;fillColor=#28FFF7;fontColor=#4D4D4D;" vertex="1" parent="1">
          <mxGeometry x="195" y="-255" width="30" height="20" as="geometry" />
        </mxCell>
        <mxCell id="K4n_j_3E0sE-HWsx0Ezl-337" value="&lt;font style=&quot;font-size: 8px;&quot;&gt;Edit&lt;/font&gt;" style="rounded=1;whiteSpace=wrap;html=1;fillColor=#FFFF66;fontColor=#000000;" vertex="1" parent="1">
          <mxGeometry x="229" y="-255" width="30" height="20" as="geometry" />
        </mxCell>
        <mxCell id="K4n_j_3E0sE-HWsx0Ezl-338" value="&lt;font style=&quot;font-size: 8px;&quot;&gt;Delete&lt;/font&gt;" style="rounded=1;whiteSpace=wrap;html=1;fillColor=#CC0000;fontColor=#FFFFFF;" vertex="1" parent="1">
          <mxGeometry x="263" y="-255" width="30" height="20" as="geometry" />
        </mxCell>
        <mxCell id="K4n_j_3E0sE-HWsx0Ezl-339" value="" style="rounded=0;whiteSpace=wrap;html=1;" vertex="1" parent="1">
          <mxGeometry x="-210" y="-400" width="380" height="90" as="geometry" />
        </mxCell>
        <mxCell id="K4n_j_3E0sE-HWsx0Ezl-340" value="Confirm Deletion" style="text;html=1;align=center;verticalAlign=middle;whiteSpace=wrap;rounded=0;fontStyle=1;fontSize=14;" vertex="1" parent="1">
          <mxGeometry x="-202" y="-395" width="123" height="30" as="geometry" />
        </mxCell>
        <mxCell id="K4n_j_3E0sE-HWsx0Ezl-341" value="" style="endArrow=none;html=1;rounded=0;fontSize=12;startSize=8;endSize=7;curved=0;exitX=-0.003;exitY=0.35;exitDx=0;exitDy=0;entryX=1;entryY=0.333;entryDx=0;entryDy=0;entryPerimeter=0;exitPerimeter=0;strokeColor=#CCCCCC;" edge="1" parent="1">
          <mxGeometry width="50" height="50" relative="1" as="geometry">
            <mxPoint x="-210.1400000000001" y="-364.4999999999998" as="sourcePoint" />
            <mxPoint x="171" y="-366.03" as="targetPoint" />
          </mxGeometry>
        </mxCell>
        <mxCell id="K4n_j_3E0sE-HWsx0Ezl-342" value="" style="endArrow=none;html=1;rounded=0;fontSize=12;startSize=8;endSize=7;curved=0;exitX=-0.003;exitY=0.35;exitDx=0;exitDy=0;entryX=1;entryY=0.333;entryDx=0;entryDy=0;entryPerimeter=0;exitPerimeter=0;strokeColor=#CCCCCC;" edge="1" parent="1">
          <mxGeometry width="50" height="50" relative="1" as="geometry">
            <mxPoint x="-209.1400000000001" y="-339.4999999999998" as="sourcePoint" />
            <mxPoint x="172" y="-341.03" as="targetPoint" />
          </mxGeometry>
        </mxCell>
        <mxCell id="K4n_j_3E0sE-HWsx0Ezl-343" value="&lt;span style=&quot;color: rgb(33, 37, 41); font-family: system-ui, -apple-system, &amp;quot;Segoe UI&amp;quot;, Roboto, &amp;quot;Helvetica Neue&amp;quot;, &amp;quot;Noto Sans&amp;quot;, &amp;quot;Liberation Sans&amp;quot;, Arial, sans-serif, &amp;quot;Apple Color Emoji&amp;quot;, &amp;quot;Segoe UI Emoji&amp;quot;, &amp;quot;Segoe UI Symbol&amp;quot;, &amp;quot;Noto Color Emoji&amp;quot;; text-align: start;&quot;&gt;&lt;font&gt;Are you sure you want to delete this car?&lt;/font&gt;&lt;/span&gt;" style="text;html=1;align=center;verticalAlign=middle;whiteSpace=wrap;rounded=0;" vertex="1" parent="1">
          <mxGeometry x="-249.5" y="-367" width="320.5" height="30" as="geometry" />
        </mxCell>
        <mxCell id="K4n_j_3E0sE-HWsx0Ezl-344" value="&lt;font style=&quot;font-size: 8px;&quot;&gt;Cancel&lt;/font&gt;" style="rounded=1;whiteSpace=wrap;html=1;fillColor=#808080;fontColor=#FFFFFF;verticalAlign=bottom;" vertex="1" parent="1">
          <mxGeometry x="79" y="-335" width="31" height="15" as="geometry" />
        </mxCell>
        <mxCell id="K4n_j_3E0sE-HWsx0Ezl-345" value="&lt;font style=&quot;font-size: 8px; line-height: 100%;&quot;&gt;Delete&lt;/font&gt;" style="rounded=1;whiteSpace=wrap;html=1;fillColor=#FF0000;fontColor=#FFFFFF;strokeWidth=1;verticalAlign=bottom;" vertex="1" parent="1">
          <mxGeometry x="115" y="-335" width="27" height="15" as="geometry" />
        </mxCell>
        <mxCell id="K4n_j_3E0sE-HWsx0Ezl-346" value="X" style="text;html=1;align=center;verticalAlign=middle;whiteSpace=wrap;rounded=0;fontStyle=0;fontSize=14;" vertex="1" parent="1">
          <mxGeometry x="86" y="-395" width="123" height="30" as="geometry" />
        </mxCell>
      </root>
    </mxGraphModel>
  </diagram>
</mxfile>
